<svg width="32" height="32" viewBox="0 0 32 32" fill="none" xmlns="http://www.w3.org/2000/svg">
<path d="M16.0002 2.66574C23.3735 2.66574 29.3335 8.64041 29.3335 15.9991C29.3335 23.3604 23.3735 29.3324 16.0002 29.3324C8.6402 29.3324 2.66687 23.3604 2.66687 15.9991C2.66687 8.64041 8.6402 2.66574 16.0002 2.66574ZM16.0002 19.9071C15.3602 19.9071 14.8402 20.4271 14.8402 21.0671C14.8402 21.7071 15.3602 22.2404 16.0135 22.2404C16.6535 22.2404 17.1735 21.7071 17.1735 21.0671C17.1735 20.4271 16.6535 19.9071 16.0002 19.9071ZM16.0002 9.77241C15.3602 9.77241 14.8269 10.3071 14.8269 10.9457V16.8391C14.8269 17.4804 15.3602 17.9991 16.0002 17.9991C16.6402 17.9991 17.1602 17.4804 17.1602 16.8391V10.9457C17.1602 10.3071 16.6402 9.77241 16.0002 9.77241Z" fill="#78B943"/>
</svg>
