<svg width="16" height="16" viewBox="0 0 16 16" fill="none" xmlns="http://www.w3.org/2000/svg">
<path d="M11.1068 1.33339C13.3735 1.33339 14.6668 2.61339 14.6668 4.88672V11.1134C14.6668 13.3734 13.3802 14.6667 11.1135 14.6667H4.88683C2.6135 14.6667 1.3335 13.3734 1.3335 11.1134V4.88672C1.3335 2.61339 2.6135 1.33339 4.88683 1.33339H11.1068ZM7.9935 5.00672C7.68683 5.00672 7.44016 5.25339 7.44016 5.56006V7.44006H5.5535C5.40683 7.44006 5.26683 7.50006 5.16016 7.60006C5.06016 7.70672 5.00016 7.84606 5.00016 7.99339C5.00016 8.30006 5.24683 8.54672 5.5535 8.55339H7.44016V10.4401C7.44016 10.7467 7.68683 10.9934 7.9935 10.9934C8.30016 10.9934 8.54683 10.7467 8.54683 10.4401V8.55339H10.4402C10.7468 8.54672 10.9935 8.30006 10.9935 7.99339C10.9935 7.68672 10.7468 7.44006 10.4402 7.44006H8.54683V5.56006C8.54683 5.25339 8.30016 5.00672 7.9935 5.00672Z" fill="#01216C"/>
</svg>
