<svg width="475" height="337" viewBox="0 0 475 337" fill="none" xmlns="http://www.w3.org/2000/svg">
<path opacity="0.7" fill-rule="evenodd" clip-rule="evenodd" d="M41.5597 287.385C55.0676 287.385 66.018 289.758 66.018 292.685C66.018 295.611 55.0676 297.984 41.5597 297.984C28.0517 297.984 17.1014 295.611 17.1014 292.685C17.1014 289.758 28.0517 287.385 41.5597 287.385Z" fill="url(#paint0_linear)"/>
<path fill-rule="evenodd" clip-rule="evenodd" d="M74.1534 261.855C75.9936 265.079 77.0243 268.692 77.0243 272.507C77.0243 286.127 63.8839 297.169 47.6743 297.169C31.4647 297.169 18.3244 286.127 18.3244 272.507C18.3244 268.47 19.4785 264.66 21.5249 261.296C34.5268 263.355 60.4062 263.222 74.1534 261.855Z" fill="url(#paint1_linear)"/>
<mask id="mask0" mask-type="alpha" maskUnits="userSpaceOnUse" x="18" y="261" width="60" height="37">
<path fill-rule="evenodd" clip-rule="evenodd" d="M74.1534 261.855C75.9936 265.079 77.0243 268.692 77.0243 272.507C77.0243 286.127 63.8839 297.169 47.6743 297.169C31.4647 297.169 18.3244 286.127 18.3244 272.507C18.3244 268.47 19.4785 264.66 21.5249 261.296C34.5268 263.355 60.4062 263.222 74.1534 261.855Z" fill="white"/>
</mask>
<g mask="url(#mask0)">
</g>
<path fill-rule="evenodd" clip-rule="evenodd" d="M47.8781 256.405C62.6243 256.405 74.5784 259.234 74.5784 262.723C74.5784 266.213 62.6243 269.042 47.8781 269.042C33.1319 269.042 21.1777 266.213 21.1777 262.723C21.1777 259.234 33.1319 256.405 47.8781 256.405Z" fill="url(#paint2_linear)"/>
<mask id="mask1" mask-type="alpha" maskUnits="userSpaceOnUse" x="21" y="256" width="54" height="14">
<path fill-rule="evenodd" clip-rule="evenodd" d="M47.8781 256.405C62.6243 256.405 74.5784 259.234 74.5784 262.723C74.5784 266.213 62.6243 269.042 47.8781 269.042C33.1319 269.042 21.1777 266.213 21.1777 262.723C21.1777 259.234 33.1319 256.405 47.8781 256.405Z" fill="white"/>
</mask>
<g mask="url(#mask1)">
</g>
<g filter="url(#filter0_i)">
<path fill-rule="evenodd" clip-rule="evenodd" d="M45.636 258.035C44.1779 247.945 40.1667 233.374 28.1076 217.679C21.0039 208.434 20.9808 185.92 19.9549 183.437C25.529 185.354 35.5423 190.295 45.636 204.227C56.2172 218.831 49.5047 248.615 45.636 258.035Z" fill="url(#paint3_linear)"/>
</g>
<mask id="mask2" mask-type="alpha" maskUnits="userSpaceOnUse" x="19" y="183" width="33" height="76">
<path fill-rule="evenodd" clip-rule="evenodd" d="M45.636 258.035C44.1779 247.945 40.1667 233.374 28.1076 217.679C21.0039 208.434 20.9808 185.92 19.9549 183.437C25.529 185.354 35.5423 190.295 45.636 204.227C56.2172 218.831 49.5047 248.615 45.636 258.035Z" fill="white"/>
</mask>
<g mask="url(#mask2)">
<g style="mix-blend-mode:multiply" opacity="0.5">
<path fill-rule="evenodd" clip-rule="evenodd" d="M45.2284 258.035C46.3412 233.507 43.2872 218.026 33.6855 203.412L45.2284 258.035Z" fill="black" fill-opacity="0.01"/>
<path d="M45.2284 258.035C46.3412 233.507 43.2872 218.026 33.6855 203.412" stroke="#489C71" stroke-width="3"/>
</g>
</g>
<g filter="url(#filter1_i)">
<path fill-rule="evenodd" clip-rule="evenodd" d="M45.6812 268.393C41.1764 261.188 33.2172 251.423 18.7394 243.506C10.2109 238.842 2.62489 221.68 1.00738 220.132C5.90519 219.721 15.207 220.125 27.5927 227.358C40.5763 234.941 45.4664 259.909 45.6812 268.393Z" fill="url(#paint4_linear)"/>
</g>
<mask id="mask3" mask-type="alpha" maskUnits="userSpaceOnUse" x="1" y="220" width="45" height="49">
<path fill-rule="evenodd" clip-rule="evenodd" d="M45.6812 268.393C41.1764 261.188 33.2172 251.423 18.7394 243.506C10.2109 238.842 2.62489 221.68 1.00738 220.132C5.90519 219.721 15.207 220.125 27.5927 227.358C40.5763 234.941 45.4664 259.909 45.6812 268.393Z" fill="white"/>
</mask>
<g mask="url(#mask3)">
<g style="mix-blend-mode:multiply" opacity="0.5">
<path fill-rule="evenodd" clip-rule="evenodd" d="M45.37 268.53C37.9736 249.45 30.4391 238.67 18.1994 230.751L45.37 268.53Z" fill="black" fill-opacity="0.01"/>
<path d="M45.37 268.53C37.9736 249.45 30.4391 238.67 18.1994 230.751" stroke="#489C71" stroke-width="3"/>
</g>
</g>
<g filter="url(#filter2_i)">
<path fill-rule="evenodd" clip-rule="evenodd" d="M48.9163 269.38C52.4682 261.625 59.1289 250.876 72.5223 241.125C80.412 235.381 85.741 217.315 87.1511 215.564C82.2192 215.786 73.0064 217.388 61.6082 226.188C49.6597 235.413 48.0292 260.905 48.9163 269.38Z" fill="url(#paint5_linear)"/>
</g>
<mask id="mask4" mask-type="alpha" maskUnits="userSpaceOnUse" x="48" y="215" width="40" height="55">
<path fill-rule="evenodd" clip-rule="evenodd" d="M48.9163 269.38C52.4682 261.625 59.1289 250.876 72.5223 241.125C80.412 235.381 85.741 217.315 87.1511 215.564C82.2192 215.786 73.0064 217.388 61.6082 226.188C49.6597 235.413 48.0292 260.905 48.9163 269.38Z" fill="white"/>
</mask>
<g mask="url(#mask4)">
<g style="mix-blend-mode:multiply" opacity="0.5">
<path fill-rule="evenodd" clip-rule="evenodd" d="M47.8834 269.363C52.7747 249.412 58.8805 237.706 70.0443 228.242L47.8834 269.363Z" fill="black" fill-opacity="0.01"/>
<path d="M47.8834 269.363C52.7747 249.412 58.8805 237.706 70.0443 228.242" stroke="#489C71" stroke-width="3"/>
</g>
</g>
<path fill-rule="evenodd" clip-rule="evenodd" d="M467.574 285.347H212.392C208.79 285.347 205.87 282.427 205.87 278.825V6.92984C205.87 3.32762 208.79 0.407772 212.392 0.407772H467.574C471.176 0.407772 474.096 3.32762 474.096 6.92984V278.825C474.096 282.415 471.196 285.328 467.574 285.347Z" fill="url(#paint6_radial)"/>
<g opacity="0.1">
<path fill-rule="evenodd" clip-rule="evenodd" d="M329.385 122.699H257.64C255.389 122.699 253.564 120.874 253.564 118.623V51.7702C253.564 49.5188 255.389 47.6937 257.64 47.6937H329.385C331.636 47.6937 333.461 49.5188 333.461 51.7702V118.623C333.461 120.861 331.657 122.678 329.385 122.699Z" fill="#7E9ACA"/>
<path fill-rule="evenodd" clip-rule="evenodd" d="M430.887 122.699H359.142C356.891 122.699 355.066 120.874 355.066 118.623V51.7701C355.066 49.5188 356.891 47.6937 359.142 47.6937H430.887C433.138 47.6937 434.963 49.5188 434.963 51.7701V118.623C434.963 120.861 433.159 122.678 430.887 122.699Z" fill="#7E9ACA"/>
<path fill-rule="evenodd" clip-rule="evenodd" d="M296.366 189.96H257.64C255.389 189.96 253.564 188.135 253.564 185.883V147.158C253.564 144.906 255.389 143.081 257.64 143.081H296.366C298.617 143.081 300.442 144.906 300.442 147.158V185.883C300.442 188.121 298.639 189.938 296.366 189.96Z" fill="#7E9ACA"/>
<path fill-rule="evenodd" clip-rule="evenodd" d="M296.366 247.029H257.64C255.389 247.029 253.564 245.204 253.564 242.953V204.227C253.564 201.976 255.389 200.151 257.64 200.151H296.366C298.617 200.151 300.442 201.976 300.442 204.227V242.953C300.442 245.191 298.639 247.007 296.366 247.029Z" fill="#7E9ACA"/>
<path fill-rule="evenodd" clip-rule="evenodd" d="M432.517 156.126H308.595C307.92 156.126 307.372 155.578 307.372 154.903V145.119C307.372 144.444 307.92 143.896 308.595 143.896H432.517C433.193 143.896 433.74 144.444 433.74 145.119V154.903C433.74 155.565 433.213 156.105 432.517 156.126Z" fill="#7E9ACA"/>
<path fill-rule="evenodd" clip-rule="evenodd" d="M432.517 213.195H308.595C307.92 213.195 307.372 212.648 307.372 211.972V202.189C307.372 201.513 307.92 200.966 308.595 200.966H432.517C433.193 200.966 433.74 201.513 433.74 202.189V211.972C433.74 212.635 433.213 213.175 432.517 213.195Z" fill="#7E9ACA"/>
<path fill-rule="evenodd" clip-rule="evenodd" d="M403.982 176.508H308.595C307.92 176.508 307.372 175.96 307.372 175.285V165.501C307.372 164.826 307.92 164.278 308.595 164.278H403.982C404.658 164.278 405.205 164.826 405.205 165.501V175.285C405.205 175.947 404.678 176.487 403.982 176.508Z" fill="#7E9ACA"/>
<path fill-rule="evenodd" clip-rule="evenodd" d="M403.982 233.577H308.595C307.92 233.577 307.372 233.03 307.372 232.354V222.571C307.372 221.895 307.92 221.348 308.595 221.348H403.982C404.658 221.348 405.205 221.895 405.205 222.571V232.354C405.205 233.017 404.678 233.556 403.982 233.577Z" fill="#7E9ACA"/>
</g>
<path fill-rule="evenodd" clip-rule="evenodd" d="M324.9 118.215H253.156C250.905 118.215 249.08 116.39 249.08 114.139V47.2861C249.08 45.0348 250.905 43.2097 253.156 43.2097H324.9C327.152 43.2097 328.977 45.0348 328.977 47.2861V114.139C328.977 116.377 327.173 118.194 324.9 118.215Z" fill="white"/>
<g opacity="0.4">
<path fill-rule="evenodd" clip-rule="evenodd" d="M255.017 99.5873C255.017 99.5873 257.934 93.1532 263.768 80.2849L277.912 83.0908L288.791 68.2183L306.817 60.9825L322.565 71.453" fill="black" fill-opacity="0.01"/>
<path d="M255.017 99.5873C255.017 99.5873 257.934 93.1532 263.768 80.2849L277.912 83.0908L288.791 68.2183L306.817 60.9825L322.565 71.453" stroke="#D6E3FA" stroke-width="5"/>
</g>
<path fill-rule="evenodd" clip-rule="evenodd" d="M277.752 85.6982C279.311 85.6982 280.574 84.4347 280.574 82.8761C280.574 81.3175 279.311 80.054 277.752 80.054C276.193 80.054 274.93 81.3175 274.93 82.8761C274.93 84.4347 276.193 85.6982 277.752 85.6982Z" fill="#FACA39"/>
<path fill-rule="evenodd" clip-rule="evenodd" d="M263.892 84.2244C265.451 84.2244 266.714 82.9609 266.714 81.4024C266.714 79.8437 265.451 78.5802 263.892 78.5802C262.334 78.5802 261.07 79.8437 261.07 81.4024C261.07 82.9609 262.334 84.2244 263.892 84.2244Z" fill="#FACA39"/>
<path fill-rule="evenodd" clip-rule="evenodd" d="M288.758 71.0232C290.317 71.0232 291.58 69.7597 291.58 68.2011C291.58 66.6425 290.317 65.379 288.758 65.379C287.2 65.379 285.936 66.6425 285.936 68.2011C285.936 69.7597 287.2 71.0232 288.758 71.0232Z" fill="#FACA39"/>
<path fill-rule="evenodd" clip-rule="evenodd" d="M306.694 64.501C308.253 64.501 309.517 63.2375 309.517 61.6789C309.517 60.1203 308.253 58.8568 306.694 58.8568C305.136 58.8568 303.872 60.1203 303.872 61.6789C303.872 63.2375 305.136 64.501 306.694 64.501Z" fill="#FACA39"/>
<path fill-rule="evenodd" clip-rule="evenodd" d="M426.403 118.215H354.658C352.407 118.215 350.582 116.39 350.582 114.139V47.2861C350.582 45.0348 352.407 43.2097 354.658 43.2097H426.403C428.654 43.2097 430.479 45.0348 430.479 47.2861V114.139C430.479 116.377 428.676 118.194 426.403 118.215Z" fill="white"/>
<path fill-rule="evenodd" clip-rule="evenodd" d="M375.04 108.024H365.664C364.764 108.024 364.034 107.294 364.034 106.394V68.0757C364.034 67.1752 364.764 66.4451 365.664 66.4451H375.04C375.941 66.4451 376.671 67.1752 376.671 68.0757V106.394C376.671 107.282 375.961 108.004 375.04 108.024Z" fill="#78B943"/>
<path fill-rule="evenodd" clip-rule="evenodd" d="M395.422 108.024H386.046C385.146 108.024 384.416 107.466 384.416 106.777V77.4754C384.416 76.7868 385.146 76.2285 386.046 76.2285H395.422C396.323 76.2285 397.053 76.7868 397.053 77.4754V106.777C397.053 107.456 396.343 108.009 395.422 108.024Z" fill="#78B943"/>
<path fill-rule="evenodd" clip-rule="evenodd" d="M415.396 108.024H406.021C405.12 108.024 404.39 107.602 404.39 107.081V84.9168C404.39 84.3959 405.12 83.9736 406.021 83.9736H415.396C416.297 83.9736 417.027 84.3959 417.027 84.9168V107.081C417.027 107.595 416.317 108.012 415.396 108.024Z" fill="#78B943"/>
<path fill-rule="evenodd" clip-rule="evenodd" d="M429.256 151.642H305.334C304.658 151.642 304.111 151.094 304.111 150.419V140.635C304.111 139.96 304.658 139.412 305.334 139.412H429.256C429.931 139.412 430.479 139.96 430.479 140.635V150.419C430.479 151.081 429.952 151.621 429.256 151.642Z" fill="white"/>
<path fill-rule="evenodd" clip-rule="evenodd" d="M429.256 208.711H305.334C304.658 208.711 304.111 208.164 304.111 207.488V197.705C304.111 197.029 304.658 196.482 305.334 196.482H429.256C429.931 196.482 430.479 197.029 430.479 197.705V207.488C430.479 208.151 429.952 208.691 429.256 208.711Z" fill="white"/>
<path fill-rule="evenodd" clip-rule="evenodd" d="M400.721 172.024H305.334C304.658 172.024 304.111 171.476 304.111 170.801V161.017C304.111 160.342 304.658 159.794 305.334 159.794H400.721C401.397 159.794 401.944 160.342 401.944 161.017V170.801C401.944 171.463 401.417 172.003 400.721 172.024Z" fill="white"/>
<path fill-rule="evenodd" clip-rule="evenodd" d="M400.721 229.093H305.334C304.658 229.093 304.111 228.546 304.111 227.87V218.087C304.111 217.411 304.658 216.864 305.334 216.864H400.721C401.397 216.864 401.944 217.411 401.944 218.087V227.87C401.944 228.533 401.417 229.072 400.721 229.093Z" fill="white"/>
<path fill-rule="evenodd" clip-rule="evenodd" d="M291.882 185.476H253.156C250.905 185.476 249.08 183.651 249.08 181.399V142.674C249.08 140.422 250.905 138.597 253.156 138.597H291.882C294.133 138.597 295.958 140.422 295.958 142.674V181.399C295.958 183.637 294.155 185.454 291.882 185.476Z" fill="white"/>
<path fill-rule="evenodd" clip-rule="evenodd" d="M291.882 242.545H253.156C250.905 242.545 249.08 240.72 249.08 238.469V199.743C249.08 197.492 250.905 195.667 253.156 195.667H291.882C294.133 195.667 295.958 197.492 295.958 199.743V238.469C295.958 240.707 294.155 242.523 291.882 242.545Z" fill="white"/>
<path fill-rule="evenodd" clip-rule="evenodd" d="M213.752 321.544H201.905C200.259 318.114 199.166 315.173 198.629 312.723C197.823 309.047 196.61 306.314 197.823 301.352C199.036 296.39 212.99 293.578 214.75 295.167C216.511 296.757 216.224 297.607 223.199 301.311C227.412 303.549 235.211 307.156 246.596 312.131C248.813 313.101 250.247 315.292 250.247 317.712C250.247 319.928 248.471 321.736 246.255 321.776C233.865 321.999 226.153 322.111 223.118 322.111C219.826 320.918 216.704 319.448 213.752 317.701V321.544Z" fill="url(#paint7_linear)"/>
<path fill-rule="evenodd" clip-rule="evenodd" d="M228.666 307.36C229.481 306.492 233.761 303.793 235.596 305.432L228.666 307.36Z" fill="black" fill-opacity="0.01"/>
<path d="M228.666 307.36C229.481 306.492 233.761 303.793 235.596 305.432" stroke="#D2DDF1" stroke-width="4"/>
<path fill-rule="evenodd" clip-rule="evenodd" d="M143.87 236.127C143.87 236.127 180.218 215.894 189.379 212.183C198.539 208.472 213.002 204.56 214.995 205.992C216.988 207.424 229.12 217.852 233 233.872C236.879 249.892 239.577 296.529 244.175 300.045C238.661 304.423 198.379 311.116 189.379 308.093C189.379 297.114 187.682 269.667 189.379 264.345C185.978 265.957 163.78 277.274 154.615 279.684C150.124 280.865 140.681 269.829 139.126 258.879C137.508 247.482 143.87 236.127 143.87 236.127Z" fill="url(#paint8_linear)"/>
<path fill-rule="evenodd" clip-rule="evenodd" d="M143.87 236.127C143.87 236.127 180.218 215.894 189.379 212.183C198.539 208.472 213.002 204.56 214.995 205.992C216.988 207.424 229.12 217.852 233 233.872C236.879 249.892 239.577 296.529 244.175 300.045C238.661 304.423 198.379 311.116 189.379 308.093C189.379 297.114 187.682 269.667 189.379 264.345C185.978 265.957 163.78 277.274 154.615 279.684C150.124 280.865 140.681 269.829 139.126 258.879C137.508 247.482 143.87 236.127 143.87 236.127Z" fill="url(#paint9_radial)"/>
<path fill-rule="evenodd" clip-rule="evenodd" d="M143.87 236.127C143.87 236.127 180.218 215.894 189.379 212.183C198.539 208.472 213.002 204.56 214.995 205.992C216.988 207.424 229.12 217.852 233 233.872C236.879 249.892 239.577 296.529 244.175 300.045C238.661 304.423 198.379 311.116 189.379 308.093C189.379 297.114 187.682 269.667 189.379 264.345C185.978 265.957 163.78 277.274 154.615 279.684C150.124 280.865 140.681 269.829 139.126 258.879C137.508 247.482 143.87 236.127 143.87 236.127Z" fill="url(#paint10_linear)"/>
<mask id="mask5" mask-type="alpha" maskUnits="userSpaceOnUse" x="138" y="205" width="107" height="104">
<path fill-rule="evenodd" clip-rule="evenodd" d="M143.87 236.127C143.87 236.127 180.218 215.894 189.379 212.183C198.539 208.472 213.002 204.56 214.995 205.992C216.988 207.424 229.12 217.852 233 233.872C236.879 249.892 239.577 296.529 244.175 300.045C238.661 304.423 198.379 311.116 189.379 308.093C189.379 297.114 187.682 269.667 189.379 264.345C185.978 265.957 163.78 277.274 154.615 279.684C150.124 280.865 140.681 269.829 139.126 258.879C137.508 247.482 143.87 236.127 143.87 236.127Z" fill="white"/>
<path fill-rule="evenodd" clip-rule="evenodd" d="M143.87 236.127C143.87 236.127 180.218 215.894 189.379 212.183C198.539 208.472 213.002 204.56 214.995 205.992C216.988 207.424 229.12 217.852 233 233.872C236.879 249.892 239.577 296.529 244.175 300.045C238.661 304.423 198.379 311.116 189.379 308.093C189.379 297.114 187.682 269.667 189.379 264.345C185.978 265.957 163.78 277.274 154.615 279.684C150.124 280.865 140.681 269.829 139.126 258.879C137.508 247.482 143.87 236.127 143.87 236.127Z" stroke="white"/>
</mask>
<g mask="url(#mask5)">
</g>
<path fill-rule="evenodd" clip-rule="evenodd" d="M191.054 262.786C193.297 261.091 199.964 255.254 201.669 254.445C198.761 260.241 196.061 271.878 196.061 277.225C193.374 275.48 190.957 273.698 188.811 271.878C188.811 266.947 189.558 263.916 191.054 262.786Z" fill="url(#paint11_linear)"/>
<mask id="mask6" mask-type="alpha" maskUnits="userSpaceOnUse" x="188" y="254" width="14" height="24">
<path fill-rule="evenodd" clip-rule="evenodd" d="M191.054 262.786C193.297 261.091 199.964 255.254 201.669 254.445C198.761 260.241 196.061 271.878 196.061 277.225C193.374 275.48 190.957 273.698 188.811 271.878C188.811 266.947 189.558 263.916 191.054 262.786Z" fill="white"/>
</mask>
<g mask="url(#mask6)">
</g>
<path fill-rule="evenodd" clip-rule="evenodd" d="M90.2554 283.032C88.2878 284.589 86.3704 323.608 90.2554 324.406C94.1404 325.205 104.307 316.224 101.745 299.587C99.1838 282.951 92.2351 284.915 90.2554 283.032Z" fill="url(#paint12_linear)"/>
<mask id="mask7" mask-type="alpha" maskUnits="userSpaceOnUse" x="88" y="283" width="15" height="42">
<path fill-rule="evenodd" clip-rule="evenodd" d="M90.2554 283.032C88.2878 284.589 86.3704 323.608 90.2554 324.406C94.1404 325.205 104.307 316.224 101.745 299.587C99.1838 282.951 92.2351 284.915 90.2554 283.032Z" fill="white"/>
</mask>
<g mask="url(#mask7)">
</g>
<path fill-rule="evenodd" clip-rule="evenodd" d="M102.936 306.768C98.5247 309.06 92.475 308.016 84.7874 303.635C82.9111 307.873 81.6928 310.841 81.1323 312.541C78.6707 320.008 79.4474 323.883 83.4624 324.168C88.8486 324.549 95.34 324.739 102.936 324.739C107.348 310.466 107.348 304.475 102.936 306.768Z" fill="url(#paint13_linear)"/>
<mask id="mask8" mask-type="alpha" maskUnits="userSpaceOnUse" x="79" y="303" width="28" height="22">
<path fill-rule="evenodd" clip-rule="evenodd" d="M102.936 306.768C98.5247 309.06 92.475 308.016 84.7874 303.635C82.9111 307.873 81.6928 310.841 81.1323 312.541C78.6707 320.008 79.4474 323.883 83.4624 324.168C88.8486 324.549 95.34 324.739 102.936 324.739C107.348 310.466 107.348 304.475 102.936 306.768Z" fill="white"/>
</mask>
<g mask="url(#mask8)">
<g opacity="0.6">
<path fill-rule="evenodd" clip-rule="evenodd" d="M91.9792 325.294C93.556 321.203 91.7941 307.785 88.446 304.034C85.098 300.284 100.689 306.445 100.689 306.445C100.689 306.445 99.7234 316.027 98.4928 318.746C94.8713 326.749 91.1946 327.329 91.9792 325.294Z" fill="url(#paint14_linear)" style="mix-blend-mode:multiply"/>
</g>
</g>
<path fill-rule="evenodd" clip-rule="evenodd" d="M79.4792 300.26C82.7171 302.177 84.5987 303.359 88.7534 305.304C90.3135 306.035 85.8267 307.925 81.3236 314.164C77.4265 319.564 82.9026 323.887 81.3236 324.023C78.9606 324.227 78.534 323.438 71.0683 326.012C66.5852 327.558 58.9277 330.506 48.0958 334.856C45.8383 335.763 43.2603 335.282 41.4811 333.623C39.8608 332.112 39.751 329.581 41.2344 327.936C48.9633 319.362 53.8559 313.972 55.912 311.767C59.0292 310.174 62.2333 308.893 65.5243 307.925L62.7136 305.304L70.793 296.64C74.4253 297.776 77.3207 298.982 79.4792 300.26Z" fill="url(#paint15_linear)"/>
<mask id="mask9" mask-type="alpha" maskUnits="userSpaceOnUse" x="40" y="296" width="50" height="40">
<path fill-rule="evenodd" clip-rule="evenodd" d="M79.4792 300.26C82.7171 302.177 84.5987 303.359 88.7534 305.304C90.3135 306.035 85.8267 307.925 81.3236 314.164C77.4265 319.564 82.9026 323.887 81.3236 324.023C78.9606 324.227 78.534 323.438 71.0683 326.012C66.5852 327.558 58.9277 330.506 48.0958 334.856C45.8383 335.763 43.2603 335.282 41.4811 333.623C39.8608 332.112 39.751 329.581 41.2344 327.936C48.9633 319.362 53.8559 313.972 55.912 311.767C59.0292 310.174 62.2333 308.893 65.5243 307.925L62.7136 305.304L70.793 296.64C74.4253 297.776 77.3207 298.982 79.4792 300.26Z" fill="white"/>
</mask>
<g mask="url(#mask9)">
</g>
<path fill-rule="evenodd" clip-rule="evenodd" d="M59.4958 324.888C60.413 325.703 63.2665 329.984 61.534 331.818L59.4958 324.888Z" fill="black" fill-opacity="0.01"/>
<path d="M59.4958 324.888C60.413 325.703 63.2665 329.984 61.534 331.818" stroke="#D2DDF1" stroke-width="4"/>
<path fill-rule="evenodd" clip-rule="evenodd" d="M63.5723 322.85C64.4894 323.665 67.3429 327.945 65.6105 329.78L63.5723 322.85Z" fill="black" fill-opacity="0.01"/>
<path d="M63.5723 322.85C64.4894 323.665 67.3429 327.945 65.6105 329.78" stroke="#D2DDF1" stroke-width="4"/>
<path d="M67.6486 321.219C68.5658 322.035 71.4193 326.315 69.6868 328.149" stroke="#D2DDF1" stroke-width="4" stroke-linecap="round" stroke-linejoin="round"/>
<path fill-rule="evenodd" clip-rule="evenodd" d="M104.3 240.725C99.251 247.904 97.7093 260.046 101.128 268.408C104.162 275.83 116.027 283.973 118.676 285.079C112.707 285.079 92.7133 284.09 90.1436 283.08C92.4727 295.287 104.3 314.917 92.4727 324.533C101.128 325.511 175.648 326.488 183.401 325.511C191.153 324.533 216.767 328.423 219.044 314.917C221.322 301.411 203.322 282.87 197.616 278.211C191.911 273.551 159.875 253.536 154.419 247.534C148.963 241.533 109.348 233.546 104.3 240.725Z" fill="#B2C7EE"/>
<path fill-rule="evenodd" clip-rule="evenodd" d="M104.3 240.725C99.251 247.904 97.7093 260.046 101.128 268.408C104.162 275.83 116.027 283.973 118.676 285.079C112.707 285.079 92.7133 284.09 90.1436 283.08C92.4727 295.287 104.3 314.917 92.4727 324.533C101.128 325.511 175.648 326.488 183.401 325.511C191.153 324.533 216.767 328.423 219.044 314.917C221.322 301.411 203.322 282.87 197.616 278.211C191.911 273.551 159.875 253.536 154.419 247.534C148.963 241.533 109.348 233.546 104.3 240.725Z" fill="url(#paint16_linear)"/>
<path fill-rule="evenodd" clip-rule="evenodd" d="M104.3 240.725C99.251 247.904 97.7093 260.046 101.128 268.408C104.162 275.83 116.027 283.973 118.676 285.079C112.707 285.079 92.7133 284.09 90.1436 283.08C92.4727 295.287 104.3 314.917 92.4727 324.533C101.128 325.511 175.648 326.488 183.401 325.511C191.153 324.533 216.767 328.423 219.044 314.917C221.322 301.411 203.322 282.87 197.616 278.211C191.911 273.551 159.875 253.536 154.419 247.534C148.963 241.533 109.348 233.546 104.3 240.725Z" fill="url(#paint17_linear)"/>
<path fill-rule="evenodd" clip-rule="evenodd" d="M104.3 240.725C99.251 247.904 97.7093 260.046 101.128 268.408C104.162 275.83 116.027 283.973 118.676 285.079C112.707 285.079 92.7133 284.09 90.1436 283.08C92.4727 295.287 104.3 314.917 92.4727 324.533C101.128 325.511 175.648 326.488 183.401 325.511C191.153 324.533 216.767 328.423 219.044 314.917C221.322 301.411 203.322 282.87 197.616 278.211C191.911 273.551 159.875 253.536 154.419 247.534C148.963 241.533 109.348 233.546 104.3 240.725Z" fill="url(#paint18_linear)"/>
<path fill-rule="evenodd" clip-rule="evenodd" d="M90.1304 283.204C91.6728 290.37 99.1403 296.124 112.533 300.468C132.621 306.984 152.404 298.735 156.603 300.468C149.78 298.256 132.497 293.311 118.516 285.156C113.658 285.161 104.196 284.511 90.1304 283.204Z" fill="url(#paint19_linear)"/>
<path fill-rule="evenodd" clip-rule="evenodd" d="M139.847 77.1101C143.34 81.2503 143.992 83.138 147.766 86.5001C151.54 89.8622 156.719 91.0545 158.218 91.5829C159.718 92.1113 155.22 95.4613 156.719 99.8018C158.218 104.142 161.39 110.532 161.39 112.23C161.39 113.929 155.46 116.925 149.85 119.453C144.24 121.981 143.447 124.108 144.097 128.395C144.747 132.682 145.669 138.217 149.85 140.64C152.638 142.255 144.749 139.384 126.186 132.028C118.304 114.36 116.334 99.9622 120.275 88.8335C126.186 72.1405 136.355 72.9699 139.847 77.1101Z" fill="url(#paint20_linear)"/>
<mask id="mask10" mask-type="alpha" maskUnits="userSpaceOnUse" x="118" y="74" width="44" height="68">
<path fill-rule="evenodd" clip-rule="evenodd" d="M139.847 77.1101C143.34 81.2503 143.992 83.138 147.766 86.5001C151.54 89.8622 156.719 91.0545 158.218 91.5829C159.718 92.1113 155.22 95.4613 156.719 99.8018C158.218 104.142 161.39 110.532 161.39 112.23C161.39 113.929 155.46 116.925 149.85 119.453C144.24 121.981 143.447 124.108 144.097 128.395C144.747 132.682 145.669 138.217 149.85 140.64C152.638 142.255 144.749 139.384 126.186 132.028C118.304 114.36 116.334 99.9622 120.275 88.8335C126.186 72.1405 136.355 72.9699 139.847 77.1101Z" fill="white"/>
</mask>
<g mask="url(#mask10)">
<path fill-rule="evenodd" clip-rule="evenodd" d="M132.029 109.183C133.642 111.141 136.409 114.856 139.862 116.949C143.117 118.923 148.884 118.97 152.358 118.97C159.514 118.97 142.732 132.251 142.732 132.251L132.029 130.11C132.029 130.11 128.895 105.379 132.029 109.183Z" fill="url(#paint21_linear)"/>
<path fill-rule="evenodd" clip-rule="evenodd" d="M140.399 88.2091C140.399 86.7 142.271 84.0793 143.858 84.0793L140.399 88.2091Z" fill="black" fill-opacity="0.01"/>
<path d="M140.399 88.2091C140.399 86.7 142.271 84.0793 143.858 84.0793" stroke="#223762" stroke-width="3"/>
<path fill-rule="evenodd" clip-rule="evenodd" d="M146.428 92.1003C147.105 91.9201 147.333 90.9649 146.937 89.9668C146.541 88.9686 145.67 88.3055 144.993 88.4857C144.316 88.6658 144.088 89.621 144.484 90.6192C144.88 91.6174 145.75 92.2805 146.428 92.1003Z" fill="#223762"/>
<path fill-rule="evenodd" clip-rule="evenodd" d="M156.423 99.799C156.783 99.5277 156.744 100.047 157.007 100.545C157.27 101.043 157.54 101.909 157.656 102.243C156.165 103.369 153.139 102.821 151.037 102.023C150.616 101.863 150.181 101.334 150.444 100.968C150.707 100.602 151.134 100.729 151.582 100.781C153.142 100.964 155.494 100.5 156.423 99.799Z" fill="#223762"/>
</g>
<path fill-rule="evenodd" clip-rule="evenodd" d="M219.29 121.476C218.751 120.629 218.248 108.482 219.698 106.801C221.148 105.12 224.871 103.057 225.405 103.54C225.939 104.024 227.252 106.643 226.22 107.209C225.188 107.775 223.219 109.759 223.367 110.47C223.514 111.181 223.818 113.288 224.59 114.139C225.361 114.99 220.55 123.457 219.29 121.476Z" fill="#346CC7"/>
<path fill-rule="evenodd" clip-rule="evenodd" d="M237.179 97.4353C238.354 96.4348 243.983 93.6946 244.583 95.7957C244.983 97.1964 243.133 99.0098 239.035 101.236C237.014 99.369 236.395 98.1022 237.179 97.4353Z" fill="#9DB6E2"/>
<path fill-rule="evenodd" clip-rule="evenodd" d="M213.898 107.593L237.147 96.2899C238.642 95.5629 240.445 96.0511 241.369 97.4335C242.266 98.7765 241.932 100.59 240.614 101.524L219.233 116.681C216.859 118.364 213.571 117.803 211.888 115.43C211.801 115.307 211.72 115.181 211.644 115.051C210.16 112.525 211.004 109.274 213.531 107.79C213.651 107.72 213.773 107.654 213.898 107.593Z" fill="#223762"/>
<path fill-rule="evenodd" clip-rule="evenodd" d="M213.207 134.997C216.05 131.45 217.844 129.14 218.59 128.067C219.116 127.311 218.271 122.347 219.388 120.307C220.504 118.266 221.29 117.623 222.099 116.439C222.363 116.052 223.65 114.132 224.003 113.027C224.936 110.107 225.223 108.71 225.423 107.055C225.699 104.774 231.832 100.122 232.583 98.4869C233.334 96.852 235.037 96.3367 235.946 98.4869C236.855 100.637 230.691 106.275 230.691 109.242C230.691 109.42 233.323 105.326 234.961 104.918C236.452 104.918 236.269 106.971 236.918 109.816C237.55 112.591 241.116 115.964 241.116 119.575C241.116 121.669 241.121 123.365 241.116 123.689C241.063 126.769 229.879 135.494 227.437 138.992C225.81 141.325 224.03 143.743 222.099 146.247L213.207 134.997Z" fill="url(#paint22_linear)"/>
<path fill-rule="evenodd" clip-rule="evenodd" d="M96.518 241.257C94.9847 247.921 93.9165 252.013 93.3134 253.532C92.4088 255.811 110.583 258.63 130.425 258.443C147.529 258.282 159.317 256.307 162.628 253.959C159.453 251.102 158.652 248.602 158.227 246.825C155.056 243.113 134.486 241.257 96.518 241.257Z" fill="url(#paint23_linear)"/>
<path fill-rule="evenodd" clip-rule="evenodd" d="M130.793 125.66C134.805 126.674 144.156 128.167 146.063 128.134C147.969 128.101 151.156 141.975 150.957 143.206C150.757 144.436 132.069 137.704 130.793 136.108C129.518 134.512 126.781 124.647 130.793 125.66Z" fill="url(#paint24_linear)"/>
<path fill-rule="evenodd" clip-rule="evenodd" d="M87.1044 240.385C89.9173 234.791 109.295 182.786 109.491 170.87C109.687 158.954 113.253 134.514 123.644 134.595C134.035 134.676 155.532 144.518 159.049 147.151C162.566 149.784 165.819 161.17 165.819 167.464C165.819 170.572 165.869 189.288 165.819 208.303C165.771 226.611 171.729 245.189 172.054 245.943C155.638 251.389 91.4569 248.63 87.1044 240.385Z" fill="url(#paint25_linear)"/>
<path fill-rule="evenodd" clip-rule="evenodd" d="M87.1044 240.385C89.9173 234.791 109.295 182.786 109.491 170.87C109.687 158.954 113.253 134.514 123.644 134.595C134.035 134.676 155.532 144.518 159.049 147.151C162.566 149.784 165.819 161.17 165.819 167.464C165.819 170.572 165.869 189.288 165.819 208.303C165.771 226.611 171.729 245.189 172.054 245.943C155.638 251.389 91.4569 248.63 87.1044 240.385Z" fill="url(#paint26_linear)"/>
<mask id="mask11" mask-type="alpha" maskUnits="userSpaceOnUse" x="87" y="134" width="86" height="115">
<path fill-rule="evenodd" clip-rule="evenodd" d="M87.1044 240.385C89.9173 234.791 109.295 182.786 109.491 170.87C109.687 158.954 113.253 134.514 123.644 134.595C134.035 134.676 155.532 144.518 159.049 147.151C162.566 149.784 165.819 161.17 165.819 167.464C165.819 170.572 165.869 189.288 165.819 208.303C165.771 226.611 171.729 245.189 172.054 245.943C155.638 251.389 91.4569 248.63 87.1044 240.385Z" fill="white"/>
<path fill-rule="evenodd" clip-rule="evenodd" d="M87.1044 240.385C89.9173 234.791 109.295 182.786 109.491 170.87C109.687 158.954 113.253 134.514 123.644 134.595C134.035 134.676 155.532 144.518 159.049 147.151C162.566 149.784 165.819 161.17 165.819 167.464C165.819 170.572 165.869 189.288 165.819 208.303C165.771 226.611 171.729 245.189 172.054 245.943C155.638 251.389 91.4569 248.63 87.1044 240.385Z" stroke="white"/>
</mask>
<g mask="url(#mask11)">
<path opacity="0.430246" d="M95.1642 182.418L110.654 259.055" stroke="white" stroke-width="3" stroke-linecap="square"/>
<path opacity="0.430246" d="M109.024 168.559L129.406 258.239" stroke="white" stroke-width="3" stroke-linecap="square"/>
<path opacity="0.430246" d="M122.884 148.177L147.75 263.131" stroke="white" stroke-width="3" stroke-linecap="square"/>
<path opacity="0.430246" d="M95.1642 197.909L177.915 220.736" stroke="white" stroke-width="3" stroke-linecap="square"/>
<path opacity="0.430246" d="M93.126 220.736L175.877 243.564" stroke="white" stroke-width="3" stroke-linecap="square"/>
<path opacity="0.430246" d="M93.126 175.896L175.877 198.724" stroke="white" stroke-width="3" stroke-linecap="square"/>
<path opacity="0.430246" d="M93.126 146.954L175.877 169.782" stroke="white" stroke-width="3" stroke-linecap="square"/>
<path fill-rule="evenodd" clip-rule="evenodd" d="M163.906 248.345C163.906 248.345 143.524 185.852 143.524 178.966C143.524 172.079 166.137 175.651 166.137 175.651L178.787 248.345H163.906Z" fill="url(#paint27_linear)"/>
</g>
<path fill-rule="evenodd" clip-rule="evenodd" d="M205.909 140.988C208.873 138.48 213.029 133.474 215.369 130.503C217.709 127.532 230.66 141.065 228.139 144.459C225.617 147.854 220.532 154.152 218.061 155.989C215.59 157.827 202.946 143.495 205.909 140.988Z" fill="url(#paint28_linear)"/>
<path fill-rule="evenodd" clip-rule="evenodd" d="M145.871 182.463C151.549 186.136 190.225 196.827 194.524 195.25C198.822 193.672 225.646 161.301 227.15 157.788C228.655 154.276 209.749 134.831 207.49 137.799C205.231 140.767 186.526 164.026 184.426 164.026C182.326 164.026 159.881 145.217 153.312 144.152C146.742 143.087 141.892 151.092 140.643 155.286C139.394 159.481 140.193 178.79 145.871 182.463Z" fill="url(#paint29_linear)"/>
<path fill-rule="evenodd" clip-rule="evenodd" d="M145.871 182.463C151.549 186.136 190.225 196.827 194.524 195.25C198.822 193.672 225.646 161.301 227.15 157.788C228.655 154.276 209.749 134.831 207.49 137.799C205.231 140.767 186.526 164.026 184.426 164.026C182.326 164.026 159.881 145.217 153.312 144.152C146.742 143.087 141.892 151.092 140.643 155.286C139.394 159.481 140.193 178.79 145.871 182.463Z" fill="url(#paint30_linear)"/>
<mask id="mask12" mask-type="alpha" maskUnits="userSpaceOnUse" x="140" y="137" width="88" height="59">
<path fill-rule="evenodd" clip-rule="evenodd" d="M145.871 182.463C151.549 186.136 190.225 196.827 194.524 195.25C198.822 193.672 225.646 161.301 227.15 157.788C228.655 154.276 209.749 134.831 207.49 137.799C205.231 140.767 186.526 164.026 184.426 164.026C182.326 164.026 159.881 145.217 153.312 144.152C146.742 143.087 141.892 151.092 140.643 155.286C139.394 159.481 140.193 178.79 145.871 182.463Z" fill="white"/>
<path fill-rule="evenodd" clip-rule="evenodd" d="M145.871 182.463C151.549 186.136 190.225 196.827 194.524 195.25C198.822 193.672 225.646 161.301 227.15 157.788C228.655 154.276 209.749 134.831 207.49 137.799C205.231 140.767 186.526 164.026 184.426 164.026C182.326 164.026 159.881 145.217 153.312 144.152C146.742 143.087 141.892 151.092 140.643 155.286C139.394 159.481 140.193 178.79 145.871 182.463Z" stroke="white"/>
</mask>
<g mask="url(#mask12)">
<path opacity="0.430246" d="M135.303 162.645L189.007 181.348L218.38 139.527" stroke="white" stroke-width="3" stroke-linecap="square"/>
<path opacity="0.430246" d="M148.157 140.839L166.501 191.794" stroke="white" stroke-width="3" stroke-linecap="square"/>
<path opacity="0.430246" d="M161.202 140.839L179.545 191.794" stroke="white" stroke-width="3" stroke-linecap="square"/>
<path opacity="0.430246" d="M182.807 160.406L201.966 210.138" stroke="white" stroke-width="3" stroke-linecap="square"/>
<path opacity="0.430246" d="M186.475 157.552L214.195 186.087" stroke="white" stroke-width="3" stroke-linecap="square"/>
<path opacity="0.430246" d="M192.182 146.546L226.016 175.896" stroke="white" stroke-width="3" stroke-linecap="square"/>
<path opacity="0.430246" d="M197.889 140.024L234.984 162.036" stroke="white" stroke-width="3" stroke-linecap="square"/>
</g>
<g filter="url(#filter3_i)">
<path fill-rule="evenodd" clip-rule="evenodd" d="M131.857 92.2085C139.636 89.6948 132.812 78.9527 135.568 78.9527C136.711 78.9527 141.323 78.0702 142.517 75.5761C145.165 70.0477 139.099 65.119 124.01 66.2686C98.2277 68.2327 96.8643 94.9696 99.0434 108.348C101.223 121.727 72.6647 162.353 81.666 179.75C90.6673 197.147 108.682 190.485 124.01 175.298C139.338 160.111 135.301 108.63 131.283 106.176C127.265 103.722 124.078 94.7224 131.857 92.2085Z" fill="url(#paint31_radial)"/>
</g>
<mask id="mask13" mask-type="alpha" maskUnits="userSpaceOnUse" x="79" y="66" width="65" height="125">
<path fill-rule="evenodd" clip-rule="evenodd" d="M131.857 92.2085C139.636 89.6948 132.812 78.9527 135.568 78.9527C136.711 78.9527 141.323 78.0702 142.517 75.5761C145.165 70.0477 139.099 65.119 124.01 66.2686C98.2277 68.2327 96.8643 94.9696 99.0434 108.348C101.223 121.727 72.6647 162.353 81.666 179.75C90.6673 197.147 108.682 190.485 124.01 175.298C139.338 160.111 135.301 108.63 131.283 106.176C127.265 103.722 124.078 94.7224 131.857 92.2085Z" fill="white"/>
</mask>
<g mask="url(#mask13)">
<path fill-rule="evenodd" clip-rule="evenodd" d="M133.187 107.388C133.187 112.639 123.177 178.585 114.196 183.734C105.216 188.883 141.922 188.649 141.922 178.812C141.922 168.976 133.187 102.138 133.187 107.388Z" fill="url(#paint32_linear)"/>
</g>
<g opacity="0.6">
<path fill-rule="evenodd" clip-rule="evenodd" d="M53.3812 24.4584C67.3395 24.4584 78.6549 35.7737 78.6549 49.7319C78.6549 63.6902 67.3395 75.0055 53.3812 75.0055C39.423 75.0055 28.1076 63.6902 28.1076 49.7319C28.1076 35.7737 39.423 24.4584 53.3812 24.4584Z" fill="url(#paint33_radial)"/>
<mask id="mask14" mask-type="alpha" maskUnits="userSpaceOnUse" x="28" y="24" width="51" height="52">
<path fill-rule="evenodd" clip-rule="evenodd" d="M53.3812 24.4584C67.3395 24.4584 78.6549 35.7737 78.6549 49.7319C78.6549 63.6902 67.3395 75.0055 53.3812 75.0055C39.423 75.0055 28.1076 63.6902 28.1076 49.7319C28.1076 35.7737 39.423 24.4584 53.3812 24.4584Z" fill="white"/>
</mask>
<g mask="url(#mask14)">
<path d="M53.6895 32.4719V50.6566L62.0113 58.9784" stroke="white" stroke-width="6"/>
</g>
</g>
<defs>
<filter id="filter0_i" x="19.9548" y="173.437" width="31.3665" height="84.5979" filterUnits="userSpaceOnUse" color-interpolation-filters="sRGB">
<feFlood flood-opacity="0" result="BackgroundImageFix"/>
<feBlend mode="normal" in="SourceGraphic" in2="BackgroundImageFix" result="shape"/>
<feColorMatrix in="SourceAlpha" type="matrix" values="0 0 0 0 0 0 0 0 0 0 0 0 0 0 0 0 0 0 127 0" result="hardAlpha"/>
<feOffset dy="-10"/>
<feGaussianBlur stdDeviation="11"/>
<feComposite in2="hardAlpha" operator="arithmetic" k2="-1" k3="1"/>
<feColorMatrix type="matrix" values="0 0 0 0 0.221483 0 0 0 0 0.77854 0 0 0 0 0.610041 0 0 0 1 0"/>
<feBlend mode="normal" in2="shape" result="effect1_innerShadow"/>
</filter>
<filter id="filter1_i" x="1.00739" y="210.022" width="44.6738" height="58.3713" filterUnits="userSpaceOnUse" color-interpolation-filters="sRGB">
<feFlood flood-opacity="0" result="BackgroundImageFix"/>
<feBlend mode="normal" in="SourceGraphic" in2="BackgroundImageFix" result="shape"/>
<feColorMatrix in="SourceAlpha" type="matrix" values="0 0 0 0 0 0 0 0 0 0 0 0 0 0 0 0 0 0 127 0" result="hardAlpha"/>
<feOffset dy="-10"/>
<feGaussianBlur stdDeviation="11"/>
<feComposite in2="hardAlpha" operator="arithmetic" k2="-1" k3="1"/>
<feColorMatrix type="matrix" values="0 0 0 0 0.221483 0 0 0 0 0.77854 0 0 0 0 0.610041 0 0 0 1 0"/>
<feBlend mode="normal" in2="shape" result="effect1_innerShadow"/>
</filter>
<filter id="filter2_i" x="48.713" y="205.564" width="38.4381" height="63.8162" filterUnits="userSpaceOnUse" color-interpolation-filters="sRGB">
<feFlood flood-opacity="0" result="BackgroundImageFix"/>
<feBlend mode="normal" in="SourceGraphic" in2="BackgroundImageFix" result="shape"/>
<feColorMatrix in="SourceAlpha" type="matrix" values="0 0 0 0 0 0 0 0 0 0 0 0 0 0 0 0 0 0 127 0" result="hardAlpha"/>
<feOffset dy="-10"/>
<feGaussianBlur stdDeviation="11"/>
<feComposite in2="hardAlpha" operator="arithmetic" k2="-1" k3="1"/>
<feColorMatrix type="matrix" values="0 0 0 0 0.221483 0 0 0 0 0.77854 0 0 0 0 0.610041 0 0 0 1 0"/>
<feBlend mode="normal" in2="shape" result="effect1_innerShadow"/>
</filter>
<filter id="filter3_i" x="61.9057" y="51.1006" width="81.2137" height="138.989" filterUnits="userSpaceOnUse" color-interpolation-filters="sRGB">
<feFlood flood-opacity="0" result="BackgroundImageFix"/>
<feBlend mode="normal" in="SourceGraphic" in2="BackgroundImageFix" result="shape"/>
<feColorMatrix in="SourceAlpha" type="matrix" values="0 0 0 0 0 0 0 0 0 0 0 0 0 0 0 0 0 0 127 0" result="hardAlpha"/>
<feOffset dx="-18" dy="-15"/>
<feGaussianBlur stdDeviation="13.5"/>
<feComposite in2="hardAlpha" operator="arithmetic" k2="-1" k3="1"/>
<feColorMatrix type="matrix" values="0 0 0 0 0.0404334 0 0 0 0 0.104774 0 0 0 0 0.223875 0 0 0 0.409562 0"/>
<feBlend mode="normal" in2="shape" result="effect1_innerShadow"/>
</filter>
<linearGradient id="paint0_linear" x1="66.8333" y1="286.978" x2="16.6937" y2="286.978" gradientUnits="userSpaceOnUse">
<stop stop-color="#D9E5F6" stop-opacity="0.712636"/>
<stop offset="1" stop-color="#B2C6EA"/>
</linearGradient>
<linearGradient id="paint1_linear" x1="87.0262" y1="283.337" x2="50.0598" y2="258.43" gradientUnits="userSpaceOnUse">
<stop stop-color="#ACC5E9"/>
<stop offset="0.627469" stop-color="#D3E3FB"/>
<stop offset="1" stop-color="#EAF2FF"/>
</linearGradient>
<linearGradient id="paint2_linear" x1="22.8109" y1="253.486" x2="21.5085" y2="274.367" gradientUnits="userSpaceOnUse">
<stop stop-color="#86A8D9"/>
<stop offset="1" stop-color="#BCD0F2"/>
</linearGradient>
<linearGradient id="paint3_linear" x1="14.6335" y1="203.673" x2="58.4455" y2="249.548" gradientUnits="userSpaceOnUse">
<stop stop-color="#B1FFBE"/>
<stop offset="0.444207" stop-color="#5CDB8E"/>
<stop offset="1" stop-color="#149654"/>
</linearGradient>
<linearGradient id="paint4_linear" x1="13.9963" y1="217.608" x2="20.2958" y2="266.29" gradientUnits="userSpaceOnUse">
<stop stop-color="#B1FFBE"/>
<stop offset="0.444207" stop-color="#5CDB8E"/>
<stop offset="1" stop-color="#149654"/>
</linearGradient>
<linearGradient id="paint5_linear" x1="41.921" y1="229.809" x2="70.7728" y2="275.091" gradientUnits="userSpaceOnUse">
<stop stop-color="#B1FFBE"/>
<stop offset="0.444207" stop-color="#5CDB8E"/>
<stop offset="1" stop-color="#149654"/>
</linearGradient>
<radialGradient id="paint6_radial" cx="0" cy="0" r="1" gradientUnits="userSpaceOnUse" gradientTransform="translate(438.076 32.4095) rotate(118.593) scale(339.41 329.183)">
<stop stop-color="#EDF3FD"/>
<stop offset="0.40887" stop-color="#DCE8FB"/>
<stop offset="1" stop-color="#AEBDD8"/>
</radialGradient>
<linearGradient id="paint7_linear" x1="230.706" y1="296.507" x2="227.168" y2="315.959" gradientUnits="userSpaceOnUse">
<stop stop-color="#47689B"/>
<stop offset="1" stop-color="#223762"/>
</linearGradient>
<linearGradient id="paint8_linear" x1="201.018" y1="288.25" x2="251.076" y2="311.431" gradientUnits="userSpaceOnUse">
<stop stop-color="#A5BEEC"/>
<stop offset="1" stop-color="#7B90B6"/>
</linearGradient>
<radialGradient id="paint9_radial" cx="0" cy="0" r="1" gradientUnits="userSpaceOnUse" gradientTransform="translate(217.677 203.819) rotate(90) scale(47.2612 81.9811)">
<stop stop-color="#E6F1FF" stop-opacity="0.5"/>
<stop offset="1" stop-color="#A7C0EB" stop-opacity="0.01"/>
</radialGradient>
<linearGradient id="paint10_linear" x1="201.458" y1="227.386" x2="158.527" y2="236.366" gradientUnits="userSpaceOnUse">
<stop stop-color="#B5C9EE" stop-opacity="0.01"/>
<stop offset="1" stop-color="#859BC5"/>
</linearGradient>
<linearGradient id="paint11_linear" x1="203.145" y1="278.01" x2="203.145" y2="258.266" gradientUnits="userSpaceOnUse">
<stop stop-color="#8DA6D5"/>
<stop offset="1" stop-color="#6A87BD"/>
</linearGradient>
<linearGradient id="paint12_linear" x1="103.687" y1="319.551" x2="83.5744" y2="291.69" gradientUnits="userSpaceOnUse">
<stop stop-color="#001C44"/>
<stop offset="1" stop-color="#89A3D0"/>
</linearGradient>
<linearGradient id="paint13_linear" x1="68.7401" y1="302.983" x2="75.5367" y2="324.275" gradientUnits="userSpaceOnUse">
<stop stop-color="#70B8F9"/>
<stop offset="1" stop-color="#3D82F0"/>
</linearGradient>
<linearGradient id="paint14_linear" x1="90.309" y1="305.383" x2="85.8425" y2="324.299" gradientUnits="userSpaceOnUse">
<stop stop-color="#70B8F9" stop-opacity="0.01"/>
<stop offset="1" stop-color="#0042A6"/>
</linearGradient>
<linearGradient id="paint15_linear" x1="33.2304" y1="310.712" x2="39.7096" y2="330.842" gradientUnits="userSpaceOnUse">
<stop stop-color="#47689B"/>
<stop offset="1" stop-color="#223762"/>
</linearGradient>
<linearGradient id="paint16_linear" x1="62.633" y1="264.765" x2="82.4214" y2="322.732" gradientUnits="userSpaceOnUse">
<stop stop-color="#5973A7"/>
<stop offset="1" stop-color="#B2C7EE" stop-opacity="0.01"/>
</linearGradient>
<linearGradient id="paint17_linear" x1="183.074" y1="242.721" x2="158.54" y2="282.805" gradientUnits="userSpaceOnUse">
<stop stop-color="white" stop-opacity="0.5"/>
<stop offset="1" stop-color="white" stop-opacity="0.01"/>
</linearGradient>
<linearGradient id="paint18_linear" x1="143.093" y1="310.6" x2="143.093" y2="328.965" gradientUnits="userSpaceOnUse">
<stop stop-color="#B0C8F2" stop-opacity="0.01"/>
<stop offset="1" stop-color="#96B0DA"/>
</linearGradient>
<linearGradient id="paint19_linear" x1="121.524" y1="299.547" x2="127.713" y2="284.333" gradientUnits="userSpaceOnUse">
<stop stop-color="#8DA6D5"/>
<stop offset="1" stop-color="#6A87BD"/>
</linearGradient>
<linearGradient id="paint20_linear" x1="150.498" y1="76.0071" x2="132.702" y2="91.6548" gradientUnits="userSpaceOnUse">
<stop stop-color="#70A6F9"/>
<stop offset="1" stop-color="#3D82F0"/>
</linearGradient>
<linearGradient id="paint21_linear" x1="143.374" y1="109.685" x2="125.141" y2="123.521" gradientUnits="userSpaceOnUse">
<stop stop-color="#023786"/>
<stop offset="1" stop-color="#3D82F0"/>
</linearGradient>
<linearGradient id="paint22_linear" x1="241.046" y1="125.09" x2="231.419" y2="116.938" gradientUnits="userSpaceOnUse">
<stop stop-color="#1861BD"/>
<stop offset="1" stop-color="#3D82F0"/>
</linearGradient>
<linearGradient id="paint23_linear" x1="91.6993" y1="259.258" x2="163.036" y2="259.258" gradientUnits="userSpaceOnUse">
<stop stop-color="#88A1C8"/>
<stop offset="0.342675" stop-color="#B7CAE6"/>
<stop offset="1" stop-color="#DFEBFF"/>
</linearGradient>
<linearGradient id="paint24_linear" x1="141.629" y1="122.809" x2="134.092" y2="135.881" gradientUnits="userSpaceOnUse">
<stop stop-color="#F1F7FF"/>
<stop offset="1" stop-color="#A7BCDE"/>
</linearGradient>
<linearGradient id="paint25_linear" x1="117.934" y1="155.812" x2="55.0469" y2="185.921" gradientUnits="userSpaceOnUse">
<stop stop-color="white"/>
<stop offset="1" stop-color="#EAEFFF"/>
</linearGradient>
<linearGradient id="paint26_linear" x1="154.394" y1="159.594" x2="105.504" y2="155.318" gradientUnits="userSpaceOnUse">
<stop stop-color="white" stop-opacity="0.01"/>
<stop offset="1" stop-color="#D8E1F0"/>
</linearGradient>
<linearGradient id="paint27_linear" x1="176.464" y1="168.774" x2="135.431" y2="176.728" gradientUnits="userSpaceOnUse">
<stop stop-color="#9BAECF" stop-opacity="0.771315"/>
<stop offset="0.38697" stop-color="#CDDBF4" stop-opacity="0.663638"/>
<stop offset="1" stop-color="#FEFFFF" stop-opacity="0.582965"/>
</linearGradient>
<linearGradient id="paint28_linear" x1="197.842" y1="140.761" x2="215.521" y2="165.591" gradientUnits="userSpaceOnUse">
<stop stop-color="#F1F7FF"/>
<stop offset="1" stop-color="#A7BCDE"/>
</linearGradient>
<linearGradient id="paint29_linear" x1="118.206" y1="152.041" x2="122.902" y2="201.07" gradientUnits="userSpaceOnUse">
<stop stop-color="white"/>
<stop offset="1" stop-color="#E9F0FC"/>
</linearGradient>
<linearGradient id="paint30_linear" x1="164.039" y1="181.716" x2="173.682" y2="209.777" gradientUnits="userSpaceOnUse">
<stop stop-color="white" stop-opacity="0.01"/>
<stop offset="1" stop-color="#ABBFD6"/>
</linearGradient>
<radialGradient id="paint31_radial" cx="0" cy="0" r="1" gradientUnits="userSpaceOnUse" gradientTransform="translate(94.2039 82.2203) rotate(26.1312) scale(41.9474 107.664)">
<stop stop-color="#3162AE"/>
<stop offset="1" stop-color="#223762"/>
</radialGradient>
<linearGradient id="paint32_linear" x1="111.301" y1="156.913" x2="132.367" y2="161.95" gradientUnits="userSpaceOnUse">
<stop stop-color="#001630" stop-opacity="0.0615942"/>
<stop offset="1" stop-color="#081E41"/>
</linearGradient>
<radialGradient id="paint33_radial" cx="0" cy="0" r="1" gradientUnits="userSpaceOnUse" gradientTransform="translate(68.044 36.2293) rotate(117.127) scale(44.027 82.7316)">
<stop stop-color="#CBDAF1"/>
<stop offset="1" stop-color="#7089B9"/>
</radialGradient>
</defs>
</svg>
