<svg width="499" height="476" viewBox="0 0 499 476" fill="none" xmlns="http://www.w3.org/2000/svg">
<circle cx="298" cy="138" r="71" fill="#82A1EB"/>
<circle cx="78.5" cy="383.5" r="78.5" fill="#78B943"/>
<g filter="url(#filter0_b)">
<rect x="303.42" y="430.092" width="349.021" height="227.373" rx="8" transform="rotate(-134.857 303.42 430.092)" fill="white" fill-opacity="0.4"/>
<rect x="303.422" y="429.385" width="348.021" height="226.373" rx="7.5" transform="rotate(-134.857 303.422 429.385)" stroke="white"/>
</g>
<g filter="url(#filter1_b)">
<rect x="230.393" y="118.638" width="46.0406" height="30.648" rx="8" transform="rotate(-134.857 230.393 118.638)" fill="white" fill-opacity="0.4"/>
<rect x="230.395" y="117.931" width="45.0406" height="29.648" rx="7.5" transform="rotate(-134.857 230.395 117.931)" stroke="white"/>
</g>
<path d="M135.098 168.54L133.736 167.186C133.632 167.083 133.575 166.975 133.565 166.862C133.565 166.748 133.579 166.64 133.607 166.536L135.126 159.559C134.976 159.635 134.837 159.69 134.71 159.723L128.102 161.066C127.989 161.086 127.876 161.095 127.763 161.096C127.659 161.096 127.56 161.049 127.466 160.955L126.189 159.686L134.874 157.941L136.432 149.663L137.801 151.023C137.9 151.122 137.957 151.211 137.971 151.291C137.986 151.371 137.981 151.461 137.958 151.56L136.565 158.268C136.697 158.201 136.854 158.142 137.038 158.09L143.236 156.861C143.339 156.832 143.436 156.825 143.525 156.839C143.62 156.848 143.702 156.888 143.773 156.958L145.085 158.262L136.867 159.794L135.098 168.54ZM144.311 177.695L142.949 176.341C142.845 176.238 142.788 176.13 142.778 176.017C142.778 175.904 142.792 175.795 142.82 175.691L144.339 168.714C144.189 168.79 144.05 168.845 143.923 168.878L137.315 170.221C137.202 170.241 137.089 170.25 136.976 170.251C136.872 170.251 136.773 170.204 136.679 170.11L135.402 168.842L144.087 167.096L145.645 158.818L147.014 160.178C147.113 160.277 147.17 160.366 147.184 160.446C147.199 160.526 147.194 160.616 147.171 160.715L145.778 167.423C145.91 167.356 146.067 167.297 146.251 167.245L152.449 166.016C152.552 165.987 152.649 165.98 152.738 165.994C152.833 166.003 152.915 166.043 152.986 166.113L154.298 167.417L146.08 168.949L144.311 177.695ZM153.524 186.85L152.162 185.497C152.058 185.393 152.001 185.285 151.991 185.172C151.991 185.059 152.005 184.95 152.033 184.846L153.552 177.87C153.402 177.945 153.263 178 153.136 178.033L146.528 179.377C146.415 179.396 146.302 179.406 146.189 179.406C146.085 179.406 145.986 179.359 145.892 179.265L144.615 177.997L153.3 176.251L154.858 167.973L156.227 169.333C156.326 169.432 156.383 169.521 156.397 169.601C156.412 169.682 156.407 169.771 156.384 169.87L154.991 176.578C155.123 176.512 155.28 176.452 155.464 176.4L161.661 175.171C161.765 175.142 161.862 175.135 161.951 175.149C162.046 175.158 162.128 175.198 162.199 175.268L163.511 176.572L155.293 178.104L153.524 186.85ZM162.737 196.005L161.375 194.652C161.271 194.548 161.214 194.44 161.204 194.327C161.204 194.214 161.218 194.105 161.246 194.002L162.765 187.025C162.615 187.101 162.476 187.155 162.349 187.189L155.741 188.532C155.628 188.551 155.515 188.561 155.402 188.561C155.298 188.561 155.199 188.515 155.105 188.421L153.828 187.152L162.513 185.406L164.071 177.128L165.44 178.488C165.539 178.587 165.596 178.677 165.61 178.757C165.625 178.837 165.62 178.926 165.597 179.025L164.204 185.733C164.336 185.667 164.493 185.607 164.677 185.555L170.874 184.326C170.978 184.298 171.075 184.29 171.164 184.304C171.259 184.313 171.341 184.353 171.412 184.424L172.724 185.728L164.506 187.26L162.737 196.005ZM182.839 215.981L181.477 214.628C181.373 214.524 181.317 214.416 181.307 214.303C181.306 214.19 181.32 214.081 181.348 213.978L182.868 207.001C182.717 207.077 182.578 207.131 182.451 207.165L175.844 208.508C175.731 208.527 175.618 208.537 175.504 208.537C175.401 208.537 175.302 208.491 175.207 208.397L173.93 207.128L182.615 205.382L184.173 197.104L185.542 198.465C185.641 198.563 185.698 198.653 185.712 198.733C185.727 198.813 185.722 198.902 185.699 199.001L184.306 205.709C184.438 205.643 184.596 205.583 184.779 205.531L190.977 204.302C191.08 204.274 191.177 204.266 191.267 204.28C191.361 204.289 191.444 204.329 191.515 204.4L192.827 205.704L184.608 207.236L182.839 215.981ZM192.052 225.136L190.69 223.783C190.586 223.679 190.53 223.571 190.52 223.458C190.519 223.345 190.533 223.237 190.561 223.133L192.081 216.156C191.93 216.232 191.791 216.286 191.664 216.32L185.057 217.663C184.944 217.682 184.831 217.692 184.717 217.692C184.614 217.693 184.515 217.646 184.42 217.552L183.143 216.283L191.828 214.537L193.386 206.259L194.755 207.62C194.854 207.718 194.911 207.808 194.925 207.888C194.94 207.968 194.935 208.058 194.912 208.157L193.519 214.864C193.651 214.798 193.809 214.739 193.992 214.686L200.19 213.457C200.293 213.429 200.39 213.421 200.48 213.435C200.574 213.444 200.657 213.484 200.727 213.555L202.04 214.859L193.821 216.391L192.052 225.136ZM201.265 234.291L199.903 232.938C199.799 232.835 199.742 232.726 199.733 232.613C199.732 232.5 199.746 232.392 199.774 232.288L201.294 225.311C201.143 225.387 201.004 225.442 200.877 225.475L194.27 226.818C194.157 226.837 194.044 226.847 193.93 226.847C193.827 226.848 193.728 226.801 193.633 226.707L192.356 225.438L201.041 223.692L202.599 215.414L203.968 216.775C204.067 216.873 204.124 216.963 204.138 217.043C204.153 217.123 204.148 217.213 204.125 217.312L202.732 224.019C202.864 223.953 203.022 223.894 203.205 223.841L209.403 222.613C209.506 222.584 209.603 222.577 209.693 222.59C209.787 222.6 209.87 222.639 209.94 222.71L211.253 224.014L203.034 225.546L201.265 234.291ZM210.478 243.446L209.116 242.093C209.012 241.99 208.955 241.881 208.946 241.768C208.945 241.655 208.959 241.547 208.987 241.443L210.507 234.466C210.356 234.542 210.217 234.597 210.09 234.63L203.483 235.973C203.37 235.992 203.257 236.002 203.143 236.003C203.04 236.003 202.941 235.956 202.846 235.862L201.569 234.593L210.254 232.848L211.812 224.57L213.181 225.93C213.28 226.029 213.337 226.118 213.351 226.198C213.366 226.278 213.361 226.368 213.338 226.467L211.945 233.175C212.077 233.108 212.235 233.049 212.418 232.996L218.616 231.768C218.719 231.739 218.816 231.732 218.906 231.746C219 231.755 219.083 231.794 219.153 231.865L220.466 233.169L212.247 234.701L210.478 243.446ZM230.581 263.423L229.219 262.069C229.115 261.966 229.058 261.858 229.048 261.744C229.048 261.631 229.061 261.523 229.089 261.419L230.609 254.442C230.458 254.518 230.319 254.573 230.192 254.606L223.585 255.949C223.472 255.968 223.359 255.978 223.246 255.979C223.142 255.979 223.043 255.932 222.948 255.838L221.671 254.569L230.356 252.824L231.914 244.546L233.283 245.906C233.383 246.005 233.439 246.094 233.454 246.174C233.468 246.254 233.464 246.344 233.44 246.443L232.047 253.151C232.179 253.084 232.337 253.025 232.521 252.972L238.718 251.744C238.822 251.715 238.918 251.708 239.008 251.722C239.102 251.731 239.185 251.771 239.256 251.841L240.568 253.145L232.349 254.677L230.581 263.423ZM239.794 272.578L238.432 271.224C238.328 271.121 238.271 271.013 238.261 270.9C238.261 270.786 238.274 270.678 238.302 270.574L239.822 263.597C239.671 263.673 239.532 263.728 239.405 263.761L232.798 265.104C232.685 265.124 232.572 265.133 232.459 265.134C232.355 265.134 232.256 265.087 232.161 264.993L230.884 263.724L239.569 261.979L241.127 253.701L242.496 255.061C242.595 255.16 242.652 255.249 242.667 255.329C242.681 255.409 242.677 255.499 242.653 255.598L241.26 262.306C241.392 262.239 241.55 262.18 241.734 262.128L247.931 260.899C248.035 260.87 248.131 260.863 248.221 260.877C248.315 260.886 248.398 260.926 248.469 260.996L249.781 262.3L241.562 263.832L239.794 272.578ZM249.007 281.733L247.645 280.379C247.541 280.276 247.484 280.168 247.474 280.055C247.474 279.942 247.487 279.833 247.515 279.729L249.035 272.752C248.884 272.828 248.745 272.883 248.618 272.916L242.011 274.259C241.898 274.279 241.785 274.288 241.672 274.289C241.568 274.289 241.469 274.242 241.374 274.148L240.097 272.88L248.782 271.134L250.34 262.856L251.709 264.216C251.808 264.315 251.865 264.404 251.88 264.484C251.894 264.565 251.89 264.654 251.866 264.753L250.473 271.461C250.605 271.395 250.763 271.335 250.947 271.283L257.144 270.054C257.248 270.025 257.344 270.018 257.434 270.032C257.528 270.041 257.611 270.081 257.682 270.151L258.994 271.455L250.775 272.987L249.007 281.733ZM265.479 298.102L264.117 296.749C264.013 296.645 263.956 296.537 263.947 296.424C263.946 296.311 263.96 296.202 263.988 296.098L265.507 289.122C265.357 289.197 265.218 289.252 265.091 289.285L258.484 290.629C258.37 290.648 258.257 290.658 258.144 290.658C258.04 290.658 257.941 290.611 257.847 290.517L256.57 289.249L265.255 287.503L266.813 279.225L268.182 280.585C268.281 280.684 268.338 280.773 268.352 280.854C268.367 280.934 268.362 281.023 268.339 281.122L266.946 287.83C267.078 287.764 267.235 287.704 267.419 287.652L273.617 286.423C273.72 286.394 273.817 286.387 273.906 286.401C274.001 286.41 274.083 286.45 274.154 286.52L275.467 287.824L267.248 289.356L265.479 298.102ZM274.692 307.257L273.33 305.904C273.226 305.8 273.169 305.692 273.159 305.579C273.159 305.466 273.173 305.357 273.201 305.254L274.72 298.277C274.57 298.353 274.431 298.407 274.304 298.441L267.696 299.784C267.583 299.803 267.47 299.813 267.357 299.813C267.253 299.813 267.154 299.767 267.06 299.673L265.783 298.404L274.468 296.658L276.026 288.38L277.395 289.74C277.494 289.839 277.551 289.929 277.565 290.009C277.58 290.089 277.575 290.178 277.552 290.277L276.159 296.985C276.291 296.919 276.448 296.859 276.632 296.807L282.83 295.578C282.933 295.55 283.03 295.542 283.119 295.556C283.214 295.565 283.296 295.605 283.367 295.676L284.68 296.98L276.461 298.512L274.692 307.257ZM283.905 316.412L282.543 315.059C282.439 314.955 282.382 314.847 282.372 314.734C282.372 314.621 282.386 314.512 282.414 314.409L283.933 307.432C283.783 307.508 283.644 307.562 283.517 307.596L276.909 308.939C276.796 308.958 276.683 308.968 276.57 308.968C276.466 308.969 276.367 308.922 276.273 308.828L274.996 307.559L283.681 305.813L285.239 297.535L286.608 298.896C286.707 298.994 286.764 299.084 286.778 299.164C286.793 299.244 286.788 299.333 286.765 299.433L285.372 306.14C285.504 306.074 285.661 306.014 285.845 305.962L292.043 304.733C292.146 304.705 292.243 304.697 292.332 304.711C292.427 304.72 292.509 304.76 292.58 304.831L293.893 306.135L285.674 307.667L283.905 316.412ZM293.118 325.567L291.756 324.214C291.652 324.111 291.595 324.002 291.585 323.889C291.585 323.776 291.599 323.668 291.627 323.564L293.146 316.587C292.996 316.663 292.857 316.717 292.73 316.751L286.122 318.094C286.009 318.113 285.896 318.123 285.783 318.123C285.679 318.124 285.58 318.077 285.486 317.983L284.209 316.714L292.894 314.968L294.452 306.69L295.821 308.051C295.92 308.149 295.977 308.239 295.991 308.319C296.006 308.399 296.001 308.489 295.978 308.588L294.585 315.295C294.717 315.229 294.874 315.17 295.058 315.117L301.256 313.888C301.359 313.86 301.456 313.852 301.545 313.866C301.64 313.875 301.722 313.915 301.793 313.986L303.105 315.29L294.887 316.822L293.118 325.567ZM309.591 341.936L308.229 340.583C308.125 340.48 308.068 340.371 308.058 340.258C308.058 340.145 308.071 340.037 308.099 339.933L309.619 332.956C309.468 333.032 309.329 333.087 309.202 333.12L302.595 334.463C302.482 334.482 302.369 334.492 302.256 334.492C302.152 334.493 302.053 334.446 301.958 334.352L300.681 333.083L309.366 331.338L310.924 323.059L312.293 324.42C312.393 324.519 312.449 324.608 312.464 324.688C312.478 324.768 312.474 324.858 312.45 324.957L311.057 331.665C311.189 331.598 311.347 331.539 311.531 331.486L317.728 330.258C317.832 330.229 317.928 330.222 318.018 330.235C318.112 330.245 318.195 330.284 318.266 330.355L319.578 331.659L311.359 333.191L309.591 341.936ZM318.804 351.092L317.442 349.738C317.338 349.635 317.281 349.527 317.271 349.413C317.271 349.3 317.284 349.192 317.312 349.088L318.832 342.111C318.681 342.187 318.542 342.242 318.415 342.275L311.808 343.618C311.695 343.637 311.582 343.647 311.469 343.648C311.365 343.648 311.266 343.601 311.171 343.507L309.894 342.238L318.579 340.493L320.137 332.215L321.506 333.575C321.605 333.674 321.662 333.763 321.677 333.843C321.691 333.923 321.687 334.013 321.663 334.112L320.27 340.82C320.402 340.753 320.56 340.694 320.744 340.641L326.941 339.413C327.045 339.384 327.141 339.377 327.231 339.391C327.325 339.4 327.408 339.44 327.479 339.51L328.791 340.814L320.572 342.346L318.804 351.092ZM328.017 360.247L326.655 358.893C326.551 358.79 326.494 358.682 326.484 358.569C326.484 358.455 326.497 358.347 326.525 358.243L328.045 351.266C327.894 351.342 327.755 351.397 327.628 351.43L321.021 352.773C320.908 352.793 320.795 352.802 320.682 352.803C320.578 352.803 320.479 352.756 320.384 352.662L319.107 351.393L327.792 349.648L329.35 341.37L330.719 342.73C330.818 342.829 330.875 342.918 330.89 342.998C330.904 343.078 330.9 343.168 330.876 343.267L329.483 349.975C329.615 349.908 329.773 349.849 329.957 349.797L336.154 348.568C336.258 348.539 336.354 348.532 336.444 348.546C336.538 348.555 336.621 348.595 336.692 348.665L338.004 349.969L329.785 351.501L328.017 360.247ZM337.23 369.402L335.868 368.048C335.764 367.945 335.707 367.837 335.697 367.724C335.697 367.611 335.71 367.502 335.738 367.398L337.258 360.421C337.107 360.497 336.968 360.552 336.841 360.585L330.234 361.928C330.121 361.948 330.008 361.957 329.895 361.958C329.791 361.958 329.692 361.911 329.597 361.817L328.32 360.549L337.005 358.803L338.563 350.525L339.932 351.885C340.031 351.984 340.088 352.073 340.103 352.153C340.117 352.233 340.113 352.323 340.089 352.422L338.696 359.13C338.828 359.063 338.986 359.004 339.17 358.952L345.367 357.723C345.471 357.694 345.567 357.687 345.657 357.701C345.751 357.71 345.834 357.75 345.905 357.82L347.217 359.124L338.998 360.656L337.23 369.402Z" fill="white"/>
<path d="M108.024 187.575L107.257 188.346L102.899 184.016L103.666 183.244L105.408 184.975L110.917 179.431C111.083 179.264 111.256 179.102 111.436 178.943L108.754 178.748C108.664 178.74 108.588 178.718 108.528 178.68C108.471 178.639 108.426 178.594 108.392 178.545C108.358 178.496 108.333 178.442 108.318 178.381C108.306 178.325 108.304 178.274 108.312 178.229L108.428 177.476L112.932 177.79L113.755 178.607L106.424 185.984L108.024 187.575ZM114.618 193.755C114.728 193.864 114.783 193.982 114.783 194.111C114.783 194.239 114.733 194.354 114.631 194.456L114.022 195.069L108.597 189.678L108.941 189.332C109.013 189.26 109.101 189.201 109.207 189.156C109.312 189.11 109.429 189.087 109.557 189.087L114.761 189.059C115.195 189.054 115.6 189.039 115.978 189.016C116.358 188.988 116.713 188.934 117.041 188.854C117.368 188.774 117.67 188.663 117.945 188.523C118.223 188.379 118.481 188.187 118.718 187.949C118.955 187.711 119.124 187.465 119.225 187.212C119.329 186.955 119.374 186.703 119.358 186.454C119.346 186.209 119.279 185.969 119.158 185.736C119.04 185.499 118.879 185.279 118.675 185.076C118.467 184.869 118.246 184.709 118.011 184.597C117.777 184.484 117.538 184.415 117.292 184.39C117.055 184.364 116.817 184.38 116.58 184.437C116.342 184.495 116.116 184.593 115.902 184.734C115.725 184.821 115.574 184.848 115.45 184.814C115.333 184.781 115.213 184.685 115.092 184.527L114.655 183.912C115.076 183.594 115.503 183.368 115.937 183.234C116.378 183.101 116.809 183.053 117.232 183.089C117.658 183.129 118.069 183.248 118.466 183.447C118.866 183.642 119.241 183.912 119.589 184.258C119.933 184.6 120.204 184.971 120.401 185.37C120.598 185.769 120.709 186.176 120.733 186.591C120.761 187.002 120.698 187.409 120.544 187.813C120.391 188.217 120.138 188.597 119.784 188.953C119.484 189.255 119.158 189.492 118.808 189.663C118.462 189.83 118.094 189.954 117.706 190.034C117.318 190.114 116.911 190.165 116.485 190.185C116.062 190.209 115.625 190.222 115.172 190.223L110.851 190.282C111.043 190.391 111.229 190.511 111.406 190.642C111.588 190.77 111.75 190.905 111.894 191.048L114.618 193.755ZM115.885 197.157C115.705 197.241 115.529 197.262 115.359 197.221C115.193 197.184 115.055 197.111 114.946 197.002L114.52 196.579L126.372 191.473C126.538 191.397 126.698 191.372 126.853 191.398C127.011 191.427 127.151 191.502 127.272 191.623L127.703 192.051L115.885 197.157ZM130.059 202.929C129.352 203.641 128.662 204.18 127.988 204.548C127.321 204.916 126.687 205.139 126.083 205.216C125.48 205.293 124.914 205.235 124.386 205.04C123.861 204.85 123.392 204.549 122.98 204.14C122.564 203.726 122.259 203.258 122.065 202.734C121.875 202.214 121.816 201.652 121.89 201.049C121.963 200.445 122.182 199.809 122.546 199.14C122.913 198.468 123.45 197.776 124.157 197.065C124.864 196.354 125.552 195.812 126.222 195.44C126.892 195.069 127.529 194.844 128.132 194.767C128.739 194.686 129.303 194.739 129.824 194.926C130.349 195.116 130.819 195.418 131.236 195.832C131.648 196.242 131.951 196.708 132.145 197.232C132.343 197.759 132.403 198.327 132.326 198.934C132.252 199.538 132.032 200.176 131.664 200.848C131.301 201.524 130.765 202.218 130.059 202.929ZM129.009 201.886C129.625 201.266 130.089 200.693 130.401 200.168C130.72 199.643 130.918 199.163 130.996 198.729C131.077 198.299 131.057 197.914 130.936 197.575C130.818 197.232 130.634 196.937 130.384 196.689C130.134 196.441 129.838 196.259 129.494 196.143C129.154 196.023 128.77 196.006 128.34 196.09C127.91 196.174 127.432 196.376 126.905 196.694C126.386 197.013 125.818 197.482 125.201 198.102C124.585 198.723 124.119 199.294 123.804 199.815C123.492 200.34 123.296 200.818 123.214 201.248C123.133 201.678 123.151 202.065 123.269 202.408C123.39 202.747 123.576 203.04 123.826 203.288C124.076 203.537 124.37 203.72 124.71 203.84C125.054 203.956 125.44 203.972 125.87 203.887C126.303 203.807 126.78 203.607 127.299 203.289C127.822 202.974 128.392 202.507 129.009 201.886ZM133.675 203.185C133.419 203.442 133.226 203.708 133.095 203.984C132.971 204.26 132.908 204.535 132.905 204.811C132.906 205.09 132.969 205.363 133.094 205.63C133.224 205.901 133.411 206.159 133.657 206.404C133.929 206.674 134.213 206.869 134.507 206.989C134.809 207.109 135.106 207.166 135.396 207.162C135.686 207.157 135.965 207.096 136.233 206.978C136.5 206.86 136.737 206.697 136.944 206.489C137.196 206.236 137.382 205.966 137.501 205.679C137.629 205.392 137.692 205.105 137.691 204.818C137.69 204.532 137.627 204.251 137.502 203.976C137.384 203.701 137.206 203.445 136.967 203.208C136.718 202.96 136.449 202.776 136.162 202.656C135.879 202.533 135.592 202.47 135.302 202.467C135.012 202.464 134.727 202.523 134.448 202.645C134.17 202.766 133.912 202.946 133.675 203.185ZM133.549 208.033C133.741 208.006 133.922 207.979 134.092 207.952C134.261 207.925 134.427 207.895 134.589 207.86C134.216 207.82 133.855 207.713 133.508 207.541C133.16 207.369 132.841 207.138 132.55 206.848C132.243 206.544 132.003 206.203 131.828 205.827C131.657 205.454 131.565 205.066 131.553 204.662C131.544 204.255 131.62 203.846 131.781 203.434C131.949 203.022 132.22 202.629 132.592 202.255C132.945 201.899 133.342 201.632 133.783 201.453C134.223 201.275 134.678 201.188 135.145 201.195C135.613 201.201 136.077 201.301 136.538 201.496C136.999 201.69 137.426 201.983 137.819 202.374C138.209 202.761 138.498 203.177 138.688 203.621C138.878 204.066 138.972 204.516 138.97 204.973C138.968 205.429 138.867 205.878 138.669 206.32C138.474 206.765 138.183 207.183 137.796 207.573C137.563 207.807 137.318 208.008 137.062 208.175C136.814 208.341 136.547 208.486 136.26 208.607C135.982 208.729 135.684 208.832 135.368 208.915C135.055 208.996 134.721 209.066 134.367 209.128L129.544 210.02C129.424 210.043 129.296 210.032 129.16 209.987C129.028 209.939 128.903 209.856 128.786 209.739L127.855 208.815L133.549 208.033Z" fill="#01216C"/>
<g filter="url(#filter2_b)">
<rect x="379.283" y="475.618" width="349.021" height="227.373" rx="8" transform="rotate(-170.247 379.283 475.618)" fill="white" fill-opacity="0.4"/>
<rect x="378.875" y="475.041" width="348.021" height="226.373" rx="7.5" transform="rotate(-170.247 378.875 475.041)" stroke="white"/>
</g>
<g filter="url(#filter3_b)">
<rect x="139.375" y="264.004" width="46.0406" height="30.648" rx="8" transform="rotate(-170.247 139.375 264.004)" fill="white" fill-opacity="0.4"/>
<rect x="138.967" y="263.427" width="45.0406" height="29.648" rx="7.5" transform="rotate(-170.247 138.967 263.427)" stroke="white"/>
</g>
<path d="M84.2073 351.354L80.6831 343.703L82.5871 344.019C82.7252 344.042 82.8233 344.082 82.8814 344.139C82.9395 344.196 82.9878 344.272 83.0262 344.366L85.7752 350.641C85.8442 350.511 85.9384 350.371 86.0578 350.222L90.3986 345.631C90.4731 345.549 90.5475 345.487 90.622 345.445C90.7042 345.398 90.7946 345.382 90.8933 345.399L92.7183 345.702L86.9053 351.711L90.5283 359.865L88.6343 359.55C88.4896 359.526 88.3805 359.471 88.307 359.384C88.2412 359.292 88.1897 359.196 88.1523 359.095L85.3489 352.537C85.2799 352.667 85.1989 352.789 85.1058 352.902L80.4972 357.823C80.4227 357.906 80.3395 357.98 80.2474 358.046C80.1631 358.106 80.0518 358.125 79.9137 358.102L78.1381 357.807L84.2073 351.354ZM96.8852 353.459L93.361 345.809L95.265 346.125C95.4031 346.148 95.5012 346.188 95.5593 346.245C95.6174 346.302 95.6657 346.377 95.7041 346.472L98.4531 352.747C98.5221 352.616 98.6163 352.476 98.7357 352.327L103.076 347.737C103.151 347.654 103.225 347.592 103.3 347.551C103.382 347.503 103.473 347.488 103.571 347.504L105.396 347.808L99.5832 353.816L103.206 361.97L101.312 361.656C101.167 361.631 101.058 361.576 100.985 361.49C100.919 361.398 100.868 361.301 100.83 361.2L98.0268 354.642C97.9578 354.773 97.8768 354.895 97.7837 355.008L93.1751 359.929C93.1006 360.011 93.0174 360.085 92.9253 360.151C92.841 360.211 92.7297 360.23 92.5916 360.207L90.816 359.912L96.8852 353.459ZM109.563 355.565L106.039 347.914L107.943 348.23C108.081 348.253 108.179 348.293 108.237 348.35C108.295 348.407 108.344 348.483 108.382 348.577L111.131 354.852C111.2 354.722 111.294 354.582 111.414 354.433L115.754 349.842C115.829 349.76 115.903 349.698 115.978 349.656C116.06 349.609 116.15 349.594 116.249 349.61L118.074 349.913L112.261 355.922L115.884 364.076L113.99 363.761C113.845 363.737 113.736 363.682 113.663 363.595C113.597 363.503 113.545 363.407 113.508 363.306L110.705 356.748C110.636 356.879 110.555 357 110.462 357.113L105.853 362.035C105.779 362.117 105.695 362.191 105.603 362.257C105.519 362.317 105.408 362.336 105.27 362.313L103.494 362.018L109.563 355.565ZM122.241 357.671L118.717 350.02L120.621 350.336C120.759 350.359 120.857 350.399 120.915 350.456C120.973 350.513 121.021 350.588 121.06 350.683L123.809 356.958C123.878 356.827 123.972 356.688 124.091 356.538L128.432 351.948C128.507 351.865 128.581 351.803 128.656 351.762C128.738 351.715 128.828 351.699 128.927 351.716L130.752 352.019L124.939 358.027L128.562 366.181L126.668 365.867C126.523 365.843 126.414 365.787 126.341 365.701C126.275 365.609 126.223 365.512 126.186 365.412L123.383 358.854C123.314 358.984 123.233 359.106 123.139 359.219L118.531 364.14C118.456 364.222 118.373 364.296 118.281 364.362C118.197 364.423 118.086 364.441 117.947 364.418L116.172 364.123L122.241 357.671ZM146.364 361.677L142.84 354.026L144.743 354.342C144.882 354.365 144.98 354.405 145.038 354.462C145.096 354.519 145.144 354.595 145.183 354.689L147.932 360.964C148.001 360.834 148.095 360.694 148.214 360.545L152.555 355.954C152.629 355.872 152.704 355.81 152.778 355.768C152.861 355.721 152.951 355.705 153.05 355.722L154.875 356.025L149.062 362.034L152.685 370.188L150.791 369.873C150.646 369.849 150.537 369.794 150.463 369.707C150.398 369.615 150.346 369.519 150.309 369.418L147.505 362.86C147.436 362.99 147.355 363.112 147.262 363.225L142.654 368.146C142.579 368.229 142.496 368.303 142.404 368.369C142.319 368.429 142.208 368.448 142.07 368.425L140.294 368.13L146.364 361.677ZM159.042 363.782L155.517 356.132L157.421 356.448C157.559 356.471 157.658 356.511 157.716 356.568C157.774 356.625 157.822 356.7 157.861 356.795L160.61 363.07C160.679 362.939 160.773 362.799 160.892 362.65L165.233 358.06C165.307 357.977 165.382 357.915 165.456 357.874C165.539 357.826 165.629 357.811 165.728 357.827L167.553 358.131L161.74 364.139L165.363 372.293L163.469 371.979C163.324 371.955 163.215 371.899 163.141 371.813C163.076 371.721 163.024 371.624 162.987 371.523L160.183 364.966C160.114 365.096 160.033 365.218 159.94 365.331L155.332 370.252C155.257 370.334 155.174 370.408 155.082 370.474C154.997 370.534 154.886 370.553 154.748 370.53L152.972 370.235L159.042 363.782ZM171.719 365.888L168.195 358.237L170.099 358.553C170.237 358.576 170.335 358.616 170.394 358.673C170.452 358.73 170.5 358.806 170.538 358.9L173.287 365.175C173.356 365.045 173.451 364.905 173.57 364.756L177.911 360.165C177.985 360.083 178.06 360.021 178.134 359.979C178.216 359.932 178.307 359.917 178.406 359.933L180.231 360.236L174.417 366.245L178.041 374.399L176.146 374.084C176.002 374.06 175.893 374.005 175.819 373.918C175.753 373.826 175.702 373.73 175.665 373.629L172.861 367.071C172.792 367.202 172.711 367.323 172.618 367.436L168.009 372.358C167.935 372.44 167.852 372.514 167.76 372.58C167.675 372.64 167.564 372.659 167.426 372.636L165.65 372.341L171.719 365.888ZM184.397 367.994L180.873 360.343L182.777 360.659C182.915 360.682 183.013 360.722 183.072 360.779C183.13 360.836 183.178 360.911 183.216 361.006L185.965 367.281C186.034 367.15 186.129 367.011 186.248 366.861L190.589 362.271C190.663 362.188 190.738 362.126 190.812 362.085C190.894 362.038 190.985 362.022 191.083 362.039L192.908 362.342L187.095 368.35L190.718 376.504L188.824 376.19C188.68 376.166 188.571 376.11 188.497 376.024C188.431 375.932 188.38 375.835 188.342 375.735L185.539 369.177C185.47 369.307 185.389 369.429 185.296 369.542L180.687 374.463C180.613 374.545 180.53 374.619 180.438 374.685C180.353 374.746 180.242 374.764 180.104 374.741L178.328 374.446L184.397 367.994ZM208.52 372L204.996 364.349L206.9 364.665C207.038 364.688 207.136 364.728 207.194 364.785C207.252 364.842 207.301 364.918 207.339 365.012L210.088 371.287C210.157 371.157 210.251 371.017 210.371 370.868L214.711 366.277C214.786 366.195 214.86 366.133 214.935 366.091C215.017 366.044 215.107 366.029 215.206 366.045L217.031 366.348L211.218 372.357L214.841 380.511L212.947 380.196C212.802 380.172 212.693 380.117 212.62 380.03C212.554 379.938 212.502 379.842 212.465 379.741L209.662 373.183C209.593 373.313 209.512 373.435 209.419 373.548L204.81 378.47C204.736 378.552 204.652 378.626 204.56 378.692C204.476 378.752 204.365 378.771 204.227 378.748L202.451 378.453L208.52 372ZM221.198 374.106L217.674 366.455L219.578 366.771C219.716 366.794 219.814 366.834 219.872 366.891C219.93 366.948 219.979 367.023 220.017 367.118L222.766 373.393C222.835 373.262 222.929 373.123 223.048 372.973L227.389 368.383C227.464 368.3 227.538 368.238 227.613 368.197C227.695 368.149 227.785 368.134 227.884 368.15L229.709 368.454L223.896 374.462L227.519 382.616L225.625 382.302C225.48 382.278 225.371 382.222 225.298 382.136C225.232 382.044 225.18 381.947 225.143 381.846L222.34 375.289C222.271 375.419 222.19 375.541 222.097 375.654L217.488 380.575C217.413 380.657 217.33 380.731 217.238 380.797C217.154 380.857 217.043 380.876 216.904 380.853L215.129 380.558L221.198 374.106ZM233.876 376.211L230.352 368.56L232.256 368.877C232.394 368.899 232.492 368.939 232.55 368.996C232.608 369.053 232.656 369.129 232.695 369.223L235.444 375.498C235.513 375.368 235.607 375.228 235.726 375.079L240.067 370.488C240.142 370.406 240.216 370.344 240.291 370.302C240.373 370.255 240.463 370.24 240.562 370.256L242.387 370.559L236.574 376.568L240.197 384.722L238.303 384.407C238.158 384.383 238.049 384.328 237.976 384.241C237.91 384.149 237.858 384.053 237.821 383.952L235.018 377.394C234.949 377.525 234.868 377.646 234.774 377.759L230.166 382.681C230.091 382.763 230.008 382.837 229.916 382.903C229.832 382.963 229.72 382.982 229.582 382.959L227.807 382.664L233.876 376.211ZM254.184 379.584L250.66 371.933L252.563 372.249C252.702 372.272 252.8 372.312 252.858 372.369C252.916 372.426 252.964 372.502 253.003 372.596L255.752 378.871C255.821 378.741 255.915 378.601 256.034 378.452L260.375 373.861C260.449 373.779 260.524 373.717 260.598 373.675C260.681 373.628 260.771 373.612 260.87 373.629L262.695 373.932L256.882 379.941L260.505 388.094L258.611 387.78C258.466 387.756 258.357 387.701 258.283 387.614C258.218 387.522 258.166 387.426 258.129 387.325L255.325 380.767C255.256 380.897 255.175 381.019 255.082 381.132L250.474 386.053C250.399 386.136 250.316 386.21 250.224 386.275C250.139 386.336 250.028 386.354 249.89 386.332L248.114 386.037L254.184 379.584ZM266.862 381.689L263.337 374.039L265.241 374.355C265.379 374.378 265.478 374.418 265.536 374.475C265.594 374.532 265.642 374.607 265.681 374.701L268.43 380.977C268.499 380.846 268.593 380.706 268.712 380.557L273.053 375.966C273.127 375.884 273.202 375.822 273.276 375.781C273.359 375.733 273.449 375.718 273.548 375.734L275.373 376.037L269.56 382.046L273.183 390.2L271.289 389.885C271.144 389.861 271.035 389.806 270.961 389.72C270.896 389.628 270.844 389.531 270.807 389.43L268.003 382.872C267.934 383.003 267.853 383.125 267.76 383.238L263.151 388.159C263.077 388.241 262.994 388.315 262.902 388.381C262.817 388.441 262.706 388.46 262.568 388.437L260.792 388.142L266.862 381.689ZM279.539 383.795L276.015 376.144L277.919 376.46C278.057 376.483 278.155 376.523 278.214 376.58C278.272 376.637 278.32 376.713 278.358 376.807L281.107 383.082C281.176 382.952 281.271 382.812 281.39 382.663L285.731 378.072C285.805 377.99 285.88 377.928 285.954 377.886C286.036 377.839 286.127 377.824 286.225 377.84L288.05 378.143L282.237 384.152L285.861 392.306L283.966 391.991C283.822 391.967 283.713 391.912 283.639 391.825C283.573 391.733 283.522 391.637 283.485 391.536L280.681 384.978C280.612 385.108 280.531 385.23 280.438 385.343L275.829 390.265C275.755 390.347 275.672 390.421 275.58 390.487C275.495 390.547 275.384 390.566 275.246 390.543L273.47 390.248L279.539 383.795ZM292.217 385.901L288.693 378.25L290.597 378.566C290.735 378.589 290.833 378.629 290.892 378.686C290.95 378.743 290.998 378.818 291.036 378.913L293.785 385.188C293.854 385.057 293.949 384.918 294.068 384.768L298.409 380.178C298.483 380.095 298.558 380.033 298.632 379.992C298.714 379.944 298.805 379.929 298.903 379.945L300.728 380.249L294.915 386.257L298.538 394.411L296.644 394.097C296.5 394.073 296.391 394.017 296.317 393.931C296.251 393.839 296.2 393.742 296.162 393.641L293.359 387.084C293.29 387.214 293.209 387.336 293.116 387.449L288.507 392.37C288.433 392.452 288.35 392.526 288.258 392.592C288.173 392.652 288.062 392.671 287.924 392.648L286.148 392.353L292.217 385.901ZM312.525 389.273L309.001 381.622L310.905 381.939C311.043 381.962 311.141 382.002 311.199 382.059C311.257 382.115 311.306 382.191 311.344 382.285L314.093 388.561C314.162 388.43 314.256 388.29 314.376 388.141L318.716 383.55C318.791 383.468 318.865 383.406 318.94 383.364C319.022 383.317 319.113 383.302 319.211 383.318L321.036 383.621L315.223 389.63L318.846 397.784L316.952 397.469C316.807 397.445 316.698 397.39 316.625 397.303C316.559 397.211 316.508 397.115 316.47 397.014L313.667 390.456C313.598 390.587 313.517 390.708 313.424 390.821L308.815 395.743C308.741 395.825 308.657 395.899 308.565 395.965C308.481 396.025 308.37 396.044 308.232 396.021L306.456 395.726L312.525 389.273ZM325.203 391.379L321.679 383.728L323.583 384.044C323.721 384.067 323.819 384.107 323.877 384.164C323.935 384.221 323.984 384.297 324.022 384.391L326.771 390.666C326.84 390.536 326.934 390.396 327.054 390.247L331.394 385.656C331.469 385.574 331.543 385.512 331.618 385.47C331.7 385.423 331.79 385.407 331.889 385.424L333.714 385.727L327.901 391.736L331.524 399.889L329.63 399.575C329.485 399.551 329.376 399.496 329.303 399.409C329.237 399.317 329.185 399.221 329.148 399.12L326.345 392.562C326.276 392.692 326.195 392.814 326.102 392.927L321.493 397.848C321.418 397.931 321.335 398.005 321.243 398.07C321.159 398.131 321.048 398.149 320.91 398.127L319.134 397.832L325.203 391.379ZM337.881 393.484L334.357 385.834L336.261 386.15C336.399 386.173 336.497 386.213 336.555 386.27C336.613 386.327 336.661 386.402 336.7 386.496L339.449 392.772C339.518 392.641 339.612 392.501 339.731 392.352L344.072 387.761C344.147 387.679 344.221 387.617 344.296 387.576C344.378 387.528 344.468 387.513 344.567 387.529L346.392 387.832L340.579 393.841L344.202 401.995L342.308 401.68C342.163 401.656 342.054 401.601 341.981 401.515C341.915 401.423 341.863 401.326 341.826 401.225L339.023 394.667C338.954 394.798 338.873 394.92 338.779 395.032L334.171 399.954C334.096 400.036 334.013 400.11 333.921 400.176C333.837 400.236 333.726 400.255 333.587 400.232L331.812 399.937L337.881 393.484ZM350.559 395.59L347.035 387.939L348.939 388.255C349.077 388.278 349.175 388.318 349.233 388.375C349.291 388.432 349.339 388.508 349.378 388.602L352.127 394.877C352.196 394.747 352.29 394.607 352.409 394.458L356.75 389.867C356.825 389.785 356.899 389.723 356.974 389.681C357.056 389.634 357.146 389.618 357.245 389.635L359.07 389.938L353.257 395.947L356.88 404.101L354.986 403.786C354.841 403.762 354.732 403.707 354.659 403.62C354.593 403.528 354.541 403.432 354.504 403.331L351.7 396.773C351.632 396.903 351.55 397.025 351.457 397.138L346.849 402.06C346.774 402.142 346.691 402.216 346.599 402.282C346.515 402.342 346.403 402.361 346.265 402.338L344.49 402.043L350.559 395.59Z" fill="white"/>
<path d="M73.7708 390.114L76.2016 390.517L77.4821 382.807C77.5206 382.576 77.5673 382.343 77.6224 382.109L75.3151 383.501C75.2555 383.535 75.1976 383.558 75.1415 383.57C75.0863 383.577 75.035 383.576 74.9876 383.569C74.9087 383.555 74.8403 383.528 74.7824 383.486C74.7254 383.439 74.685 383.389 74.6613 383.336L74.3203 382.655L78.1659 380.301L79.3102 380.491L77.6063 390.751L79.8318 391.12L79.6536 392.194L73.5926 391.187L73.7708 390.114ZM87.1257 381.684C87.6045 381.763 88.0399 381.909 88.4319 382.12C88.824 382.331 89.1472 382.598 89.4017 382.921C89.6623 383.24 89.847 383.609 89.956 384.027C90.065 384.445 90.0784 384.902 89.9962 385.396C89.9263 385.817 89.7985 386.196 89.6128 386.533C89.4272 386.87 89.1989 387.186 88.9282 387.481C88.6583 387.772 88.3555 388.049 88.0198 388.312C87.6903 388.571 87.3411 388.834 86.9721 389.103L83.4909 391.655C83.711 391.632 83.9315 391.623 84.1524 391.627C84.3743 391.626 84.5851 391.642 84.7851 391.675L88.5732 392.304C88.7258 392.33 88.8393 392.395 88.9139 392.499C88.9885 392.603 89.014 392.726 88.9904 392.868L88.8489 393.721L81.3042 392.468L81.3842 391.986C81.4008 391.886 81.4362 391.787 81.4905 391.688C81.5501 391.589 81.632 391.503 81.7363 391.429L85.9629 388.392C86.3135 388.137 86.6356 387.89 86.9292 387.652C87.2236 387.409 87.4813 387.16 87.7021 386.905C87.9282 386.65 88.1126 386.386 88.2553 386.113C88.399 385.834 88.4983 385.529 88.5534 385.197C88.6084 384.866 88.6039 384.568 88.5397 384.303C88.4764 384.033 88.3662 383.801 88.2092 383.607C88.0521 383.414 87.8565 383.257 87.6223 383.137C87.389 383.012 87.1303 382.925 86.8462 382.878C86.5621 382.831 86.2921 382.829 86.0361 382.873C85.7801 382.917 85.5447 383 85.33 383.121C85.1213 383.238 84.9342 383.388 84.7686 383.571C84.6083 383.755 84.4813 383.967 84.3876 384.205C84.3201 384.351 84.2387 384.451 84.1431 384.505C84.0476 384.56 83.9314 384.576 83.7946 384.553C83.7683 384.548 83.7394 384.544 83.7078 384.538C83.6824 384.529 83.6517 384.518 83.6157 384.507L82.9028 384.259C83.062 383.755 83.2797 383.324 83.5557 382.964C83.8325 382.599 84.1537 382.309 84.5192 382.094C84.89 381.88 85.2945 381.739 85.7329 381.671C86.1774 381.599 86.6416 381.603 87.1257 381.684ZM90.8824 394.229C90.7781 394.401 90.6449 394.519 90.4827 394.584C90.3258 394.65 90.1711 394.67 90.0185 394.645L89.4266 394.547L96.1318 383.52C96.2281 383.363 96.3469 383.25 96.488 383.182C96.6291 383.113 96.7865 383.094 96.9601 383.122L97.552 383.221L90.8824 394.229ZM105.147 390.621C104.983 391.61 104.732 392.45 104.396 393.14C104.066 393.826 103.677 394.375 103.23 394.787C102.784 395.2 102.288 395.48 101.745 395.627C101.206 395.776 100.651 395.802 100.077 395.707C99.4984 395.611 98.9783 395.406 98.517 395.091C98.0609 394.778 97.688 394.354 97.3983 393.819C97.1087 393.284 96.9185 392.639 96.8277 391.883C96.7379 391.122 96.7751 390.247 96.9394 389.258C97.1036 388.269 97.3513 387.429 97.6823 386.738C98.0134 386.047 98.4023 385.495 98.8493 385.082C99.2971 384.665 99.7875 384.381 100.32 384.232C100.859 384.084 101.417 384.057 101.996 384.153C102.569 384.249 103.087 384.454 103.548 384.768C104.015 385.083 104.393 385.511 104.681 386.051C104.971 386.586 105.161 387.234 105.251 387.995C105.346 388.757 105.311 389.632 105.147 390.621ZM103.687 390.379C103.83 389.516 103.877 388.78 103.826 388.172C103.782 387.559 103.666 387.053 103.478 386.654C103.296 386.256 103.057 385.954 102.761 385.748C102.466 385.537 102.145 385.403 101.798 385.345C101.451 385.287 101.104 385.311 100.756 385.415C100.41 385.515 100.086 385.723 99.7849 386.041C99.4835 386.358 99.2102 386.799 98.965 387.364C98.7259 387.925 98.5348 388.636 98.3915 389.499C98.2482 390.362 98.199 391.097 98.2441 391.705C98.2944 392.313 98.4109 392.817 98.5935 393.214C98.7761 393.612 99.0148 393.917 99.3095 394.128C99.6051 394.334 99.9265 394.466 100.274 394.523C100.621 394.581 100.968 394.56 101.314 394.461C101.661 394.356 101.985 394.145 102.287 393.828C102.594 393.511 102.866 393.073 103.106 392.512C103.35 391.953 103.544 391.241 103.687 390.379ZM109.787 392.43C109.36 392.359 108.967 392.221 108.607 392.015C108.251 391.81 107.952 391.547 107.708 391.225C107.465 390.898 107.29 390.52 107.182 390.091C107.081 389.658 107.074 389.181 107.161 388.661C107.243 388.166 107.412 387.718 107.668 387.317C107.923 386.917 108.244 386.583 108.628 386.317C109.013 386.051 109.45 385.864 109.938 385.756C110.426 385.648 110.944 385.64 111.491 385.73C112.033 385.82 112.51 385.992 112.922 386.244C113.335 386.496 113.672 386.809 113.934 387.182C114.197 387.556 114.375 387.98 114.469 388.455C114.568 388.931 114.573 389.44 114.483 389.982C114.429 390.308 114.346 390.613 114.234 390.898C114.128 391.177 113.994 391.447 113.832 391.707C113.67 391.966 113.484 392.222 113.274 392.474C113.071 392.721 112.843 392.975 112.588 393.236L109.174 396.756C109.089 396.844 108.978 396.91 108.841 396.952C108.705 396.989 108.556 396.994 108.392 396.967L107.098 396.752L111.287 392.817C111.429 392.683 111.56 392.557 111.683 392.437C111.806 392.316 111.923 392.195 112.035 392.073C111.708 392.257 111.352 392.379 110.969 392.44C110.586 392.5 110.192 392.497 109.787 392.43ZM113.161 389.592C113.22 389.24 113.215 388.912 113.146 388.608C113.084 388.301 112.969 388.03 112.802 387.797C112.636 387.564 112.422 387.372 112.16 387.22C111.905 387.064 111.612 386.959 111.28 386.904C110.933 386.846 110.605 386.851 110.296 386.919C109.994 386.982 109.723 387.097 109.485 387.262C109.252 387.429 109.057 387.643 108.9 387.903C108.743 388.164 108.637 388.46 108.582 388.791C108.523 389.149 108.52 389.478 108.572 389.779C108.631 390.075 108.739 390.337 108.896 390.563C109.059 390.79 109.268 390.976 109.525 391.121C109.788 391.268 110.09 391.369 110.432 391.426C110.811 391.489 111.155 391.484 111.464 391.411C111.78 391.333 112.055 391.209 112.289 391.037C112.523 390.865 112.714 390.653 112.864 390.403C113.014 390.152 113.113 389.882 113.161 389.592Z" fill="#01216C"/>
<defs>
<filter id="filter0_b" x="13.2412" y="-21.6933" width="495.356" height="495.785" filterUnits="userSpaceOnUse" color-interpolation-filters="sRGB">
<feFlood flood-opacity="0" result="BackgroundImageFix"/>
<feGaussianBlur in="BackgroundImage" stdDeviation="22"/>
<feComposite in2="SourceAlpha" operator="in" result="effect1_backgroundBlur"/>
<feBlend mode="normal" in="SourceGraphic" in2="effect1_backgroundBlur" result="shape"/>
</filter>
<filter id="filter1_b" x="153.919" y="20.3843" width="142.2" height="142.254" filterUnits="userSpaceOnUse" color-interpolation-filters="sRGB">
<feFlood flood-opacity="0" result="BackgroundImageFix"/>
<feGaussianBlur in="BackgroundImage" stdDeviation="22"/>
<feComposite in2="SourceAlpha" operator="in" result="effect1_backgroundBlur"/>
<feBlend mode="normal" in="SourceGraphic" in2="effect1_backgroundBlur" result="shape"/>
</filter>
<filter id="filter2_b" x="-8.69336" y="148.407" width="470.494" height="371.211" filterUnits="userSpaceOnUse" color-interpolation-filters="sRGB">
<feFlood flood-opacity="0" result="BackgroundImageFix"/>
<feGaussianBlur in="BackgroundImage" stdDeviation="22"/>
<feComposite in2="SourceAlpha" operator="in" result="effect1_backgroundBlur"/>
<feBlend mode="normal" in="SourceGraphic" in2="effect1_backgroundBlur" result="shape"/>
</filter>
<filter id="filter3_b" x="50" y="182" width="138.567" height="126.004" filterUnits="userSpaceOnUse" color-interpolation-filters="sRGB">
<feFlood flood-opacity="0" result="BackgroundImageFix"/>
<feGaussianBlur in="BackgroundImage" stdDeviation="22"/>
<feComposite in2="SourceAlpha" operator="in" result="effect1_backgroundBlur"/>
<feBlend mode="normal" in="SourceGraphic" in2="effect1_backgroundBlur" result="shape"/>
</filter>
</defs>
</svg>
