<svg width="16" height="16" viewBox="0 0 16 16" fill="none" xmlns="http://www.w3.org/2000/svg">
<path d="M10.794 1.33333C12.8533 1.33333 14 2.52 14 4.55333V11.44C14 13.5067 12.8533 14.6667 10.794 14.6667H5.20667C3.18 14.6667 2 13.5067 2 11.44V4.55333C2 2.52 3.18 1.33333 5.20667 1.33333H10.794ZM5.38667 10.4933C5.18667 10.4733 4.99333 10.5667 4.88667 10.74C4.78 10.9067 4.78 11.1267 4.88667 11.3C4.99333 11.4667 5.18667 11.5667 5.38667 11.54H10.6133C10.8793 11.5133 11.08 11.286 11.08 11.02C11.08 10.7467 10.8793 10.52 10.6133 10.4933H5.38667ZM10.6133 7.45266H5.38667C5.09933 7.45266 4.86667 7.68666 4.86667 7.97333C4.86667 8.26 5.09933 8.49333 5.38667 8.49333H10.6133C10.9 8.49333 11.1333 8.26 11.1333 7.97333C11.1333 7.68666 10.9 7.45266 10.6133 7.45266ZM7.37933 4.43333H5.38667V4.44C5.09933 4.44 4.86667 4.67333 4.86667 4.96C4.86667 5.24666 5.09933 5.48 5.38667 5.48H7.37933C7.66667 5.48 7.9 5.24666 7.9 4.95266C7.9 4.66666 7.66667 4.43333 7.37933 4.43333Z" fill="#01216C"/>
</svg>
