<svg width="25" height="33" viewBox="0 0 25 33" fill="none" xmlns="http://www.w3.org/2000/svg">
<path fill-rule="evenodd" clip-rule="evenodd" d="M10.1788 1L3.07446 5.71628L8.56688 10.7013L8.74595 8.79081H18.6861L18.8651 6.85056L24.2381 11.4475C24.2381 11.4475 24.6262 8.8804 23.7307 6.99984C22.8352 5.11928 20.3576 3.02975 17.9995 2.99992C15.6414 2.97009 9.79075 2.97009 9.79075 2.97009L10.1788 1Z" fill="#78B943" stroke="#78B943" stroke-width="0.216"/>
<path fill-rule="evenodd" clip-rule="evenodd" d="M18.9668 18.4127C20.2971 19.5778 21.443 21.4306 21.1982 24.3146C20.6562 30.7004 14.2683 33.0586 12.6266 32.9989C10.9848 32.9392 0 32.9989 0 32.9989L2.85733 19.6272C3.39462 18.0153 5.58308 14.5908 8.92626 14.2027C12.2694 13.8147 17.7011 13.835 17.7011 13.835L17.4324 15.8946L24.2223 11.4339C24.2223 11.4339 23.6617 14.6918 21.6654 16.4555C20.4156 17.5597 19.6283 18.0668 18.9668 18.4127ZM7.89627 26.7256L8.65658 21.6259C8.7234 21.1776 9.75575 19.4331 11.6416 19.4205C13.5274 19.4079 13.3841 19.416 13.6118 19.4234C13.8394 19.4309 15.9996 20.014 15.3429 22.7601C14.6862 25.5063 14.2058 26.2374 13.2506 26.7149C12.2954 27.1925 9.4849 27.0778 8.5073 27.0703C7.78341 27.0442 7.9006 26.8334 7.89627 26.7256Z" fill="#01216C"/>
</svg>
