<svg width="134" height="33" viewBox="0 0 134 33" fill="none" xmlns="http://www.w3.org/2000/svg">
<path fill-rule="evenodd" clip-rule="evenodd" d="M10.1786 1L3.07434 5.71628L8.56676 10.7013L8.74583 8.79081H18.6859L18.865 6.85056L24.238 11.4475C24.238 11.4475 24.6261 8.8804 23.7306 6.99984C22.8351 5.11928 20.3575 3.02975 17.9994 2.99992C15.6412 2.97009 9.79063 2.97009 9.79063 2.97009L10.1786 1Z" fill="#78B943" stroke="#78B943" stroke-width="0.216"/>
<path fill-rule="evenodd" clip-rule="evenodd" d="M18.9668 18.4127C20.2971 19.5778 21.443 21.4306 21.1982 24.3146C20.6562 30.7004 14.2683 33.0586 12.6266 32.9989C10.9848 32.9392 0 32.9989 0 32.9989L2.85733 19.6272C3.39462 18.0153 5.58308 14.5908 8.92626 14.2027C12.2694 13.8147 17.7011 13.835 17.7011 13.835L17.4324 15.8946L24.2223 11.4339C24.2223 11.4339 23.6617 14.6918 21.6654 16.4555C20.4156 17.5597 19.6283 18.0668 18.9668 18.4127ZM7.89627 26.7256L8.65658 21.6259C8.7234 21.1776 9.75575 19.4331 11.6416 19.4205C13.5274 19.4079 13.3841 19.416 13.6118 19.4234C13.8394 19.4309 15.9996 20.014 15.3429 22.7601C14.6862 25.5063 14.2058 26.2374 13.2506 26.7149C12.2954 27.1925 9.4849 27.0778 8.5073 27.0703C7.78341 27.0442 7.9006 26.8334 7.89627 26.7256Z" fill="#01216C"/>
<path fill-rule="evenodd" clip-rule="evenodd" d="M41 13.2605H46.1511C48.0025 13.2605 49.3267 13.6171 50.1206 14.3335C50.7626 14.9072 51.0851 15.7476 51.0851 16.8516C51.0851 17.7355 50.7905 18.4643 50.2012 19.0411C49.6988 19.5373 49.0352 19.8568 48.2134 19.9963V20.1234C49.3515 20.3095 50.2075 20.7437 50.7843 21.4228C51.2805 22.0089 51.5286 22.7377 51.5286 23.603C51.5286 24.9768 51.0293 26.025 50.0307 26.7445C49.1407 27.3802 47.9343 27.6997 46.4147 27.6997H41V13.2605ZM43.4531 15.1398V19.1962H45.6518C46.6814 19.1962 47.4505 18.9822 47.9591 18.5512C48.384 18.1914 48.5949 17.7076 48.5949 17.0967C48.5949 16.3865 48.3623 15.8779 47.894 15.5678C47.466 15.2825 46.79 15.1398 45.8689 15.1398H43.4531ZM43.4531 21.0755V25.8203H46.1325C47.1373 25.8203 47.8847 25.5785 48.3777 25.1009C48.7871 24.6946 48.9949 24.1364 48.9949 23.42C48.9949 22.6323 48.6786 22.0338 48.049 21.6214C47.4908 21.2585 46.7465 21.0755 45.8131 21.0755H43.4531ZM53.6746 20.0583C54.2018 18.1821 55.6098 17.2424 57.8985 17.2424C60.5407 17.2424 61.8586 18.3713 61.8586 20.632V24.6822C61.8586 25.6715 61.9145 26.6762 62.0231 27.6997H59.8708C59.8026 27.3182 59.7467 26.8716 59.6971 26.3599C58.9653 27.4143 57.8923 27.9415 56.4812 27.9415C55.4702 27.9415 54.6763 27.6315 54.0995 27.0143C53.5909 26.4684 53.3366 25.7676 53.3366 24.9055C53.3366 23.0882 54.4499 21.9624 56.6704 21.5345C57.4953 21.3763 58.4691 21.2802 59.5886 21.243V20.6631C59.5886 19.987 59.4274 19.5063 59.1079 19.221C58.8288 18.9791 58.3977 18.8613 57.8178 18.8613C57.2844 18.8613 56.8409 19.0318 56.4905 19.3761C56.168 19.6924 55.9602 20.1142 55.8641 20.6475L53.6746 20.0583ZM59.5886 22.6881C58.8071 22.7067 58.0256 22.8059 57.2441 22.9889C56.1308 23.2556 55.5726 23.8324 55.5726 24.7256C55.5726 25.7552 56.1183 26.27 57.2069 26.27C58.2024 26.27 58.9963 25.7087 59.5886 24.5891V22.6881ZM67.0749 17.4844V19.2706C67.5215 18.6069 68.0548 18.0953 68.672 17.7417C69.2364 17.4223 69.8194 17.2611 70.4273 17.2611C71.3545 17.2611 72.0833 17.565 72.6167 18.1697C73.1005 18.7155 73.3424 19.435 73.3424 20.3312V27.6997H70.9452V20.9856C70.9452 19.8412 70.4738 19.2675 69.5279 19.2675C69.0907 19.2675 68.6441 19.4443 68.182 19.7947C67.7882 20.1048 67.4439 20.508 67.1462 21.0042V27.6997H64.8017V17.4844H67.0749ZM84.9192 17.4844L81.511 21.3019L85.1083 27.6997H82.5375L80.0131 22.8835L78.6113 24.4279V27.6997H76.304V13H78.6113V21.9469L82.2924 17.4844H84.9192Z" fill="#01216C"/>
<path fill-rule="evenodd" clip-rule="evenodd" d="M88.8714 13.1134V25.5275H95.6414V27.5526H86.3378V13.1134H88.8714ZM100.054 17.3372V27.5526H97.7098V17.3372H100.054ZM100.157 13.1134V15.5106H97.6199V13.1134H100.157ZM105.326 17.3372V19.1235C105.773 18.4598 106.306 17.9482 106.923 17.5946C107.488 17.2752 108.071 17.1139 108.679 17.1139C109.606 17.1139 110.335 17.4179 110.868 18.0226C111.352 18.5684 111.594 19.2878 111.594 20.1841V27.5526H109.197V20.8385C109.197 19.6941 108.725 19.1204 107.779 19.1204C107.342 19.1204 106.896 19.2972 106.433 19.6476C106.04 19.9577 105.695 20.3609 105.398 20.857V27.5526H103.053V17.3372H105.326ZM123.36 15.9231L123.214 17.8024C122.693 17.8024 122.296 17.8489 122.026 17.9388C121.812 18.0133 121.601 18.1404 121.39 18.3296C121.946 18.9033 122.225 19.5856 122.225 20.3702C122.225 21.4835 121.8 22.3456 120.953 22.9565C120.237 23.4776 119.322 23.7381 118.209 23.7381C117.737 23.7381 117.294 23.6791 116.881 23.5644C116.385 23.8125 116.137 24.1103 116.137 24.4545C116.137 24.6994 116.239 24.87 116.447 24.9755C116.652 25.0778 117.021 25.1522 117.554 25.2018L119.862 25.391C121.232 25.5243 122.191 25.8407 122.743 26.3369C123.18 26.7431 123.397 27.3107 123.397 28.0363C123.397 29.0225 122.898 29.8009 121.899 30.3715C120.984 30.8863 119.772 31.1437 118.264 31.1437C116.714 31.1437 115.526 30.8863 114.701 30.3715C114.013 29.9343 113.665 29.3667 113.665 28.6627C113.665 27.7914 114.292 27.1277 115.548 26.6718C114.59 26.4609 114.112 25.9709 114.112 25.2018C114.112 24.4452 114.633 23.7381 115.675 23.0837C114.704 22.4666 114.221 21.5704 114.221 20.3888C114.221 19.3375 114.645 18.5095 115.492 17.9047C116.215 17.3775 117.123 17.1139 118.227 17.1139C119.068 17.1139 119.793 17.2783 120.398 17.6039C120.755 16.9558 121.18 16.5092 121.67 16.258C122.101 16.0347 122.665 15.9231 123.36 15.9231ZM118.218 18.494C117.641 18.494 117.179 18.6831 116.829 19.0584C116.519 19.3964 116.363 19.8275 116.363 20.3547C116.363 21.0369 116.562 21.5548 116.956 21.9115C117.281 22.2092 117.703 22.358 118.218 22.358C118.81 22.358 119.279 22.1658 119.617 21.7844C119.927 21.4308 120.082 20.9594 120.082 20.3702C120.082 19.7562 119.877 19.2723 119.471 18.9219C119.139 18.6366 118.72 18.494 118.218 18.494ZM116.956 26.954C116.041 27.2455 115.582 27.7076 115.582 28.3464C115.582 28.8179 115.874 29.1807 116.456 29.435C116.953 29.6552 117.598 29.7637 118.392 29.7637C119.409 29.7637 120.187 29.6117 120.727 29.3078C121.155 29.0659 121.372 28.7651 121.372 28.4085C121.372 28.0209 121.232 27.7417 120.953 27.5712C120.674 27.4099 120.187 27.292 119.489 27.2176L116.956 26.954ZM129.382 17.1139C130.874 17.1139 132.04 17.6504 132.88 18.7204C133.625 19.6724 134 20.9098 134 22.4356C134 24.1971 133.519 25.5709 132.564 26.5509C131.739 27.3913 130.672 27.8131 129.364 27.8131C127.863 27.8131 126.694 27.2765 125.859 26.2066C125.118 25.2608 124.749 24.0234 124.749 22.4914C124.749 20.7361 125.23 19.3623 126.194 18.3761C127.025 17.5357 128.086 17.1139 129.382 17.1139ZM129.382 18.8041C127.894 18.8041 127.149 20.0198 127.149 22.4542C127.149 24.9011 127.888 26.1229 129.364 26.1229C130.855 26.1229 131.6 24.9011 131.6 22.4542C131.6 20.0198 130.862 18.8041 129.382 18.8041Z" fill="#78B943"/>
</svg>
