<?xml version="1.0"?>
<svg xmlns="http://www.w3.org/2000/svg" xmlns:xlink="http://www.w3.org/1999/xlink" xmlns:svgjs="http://svgjs.com/svgjs" version="1.1" width="512" height="512" x="0" y="0" viewBox="0 0 512 512" style="enable-background:new 0 0 512 512" xml:space="preserve"><g>
<g xmlns="http://www.w3.org/2000/svg">
	<g>
		<path d="M481.045,57.886H30.955C13.887,57.886,0,71.773,0,88.842v334.317c0,17.069,13.887,30.955,30.955,30.955h450.089    c17.069,0,30.955-13.887,30.955-30.955V88.842C512,71.773,498.114,57.886,481.045,57.886z M474.854,416.967H37.146V95.033h437.707    V416.967z" fill="#000000" data-original="#000000" style=""/>
	</g>
</g>
<g xmlns="http://www.w3.org/2000/svg">
	<g>
		<path d="M134.346,132.798c-39.938,0-72.435,32.497-72.435,72.435s32.491,72.435,72.435,72.435    c39.938,0,72.435-32.491,72.435-72.435C206.781,165.295,174.284,132.798,134.346,132.798z M134.346,240.522    c-19.458,0-35.289-15.831-35.289-35.289s15.831-35.289,35.289-35.289c19.458,0,35.289,15.831,35.289,35.289    S153.804,240.522,134.346,240.522z" fill="#000000" data-original="#000000" style=""/>
	</g>
</g>
<g xmlns="http://www.w3.org/2000/svg">
	<g>
		<path d="M240.77,266.872c-7.225-4.519-16.604-3.529-22.74,2.384L59.539,422.174l25.792,26.733l148.053-142.846l66.944,41.839    l19.688-31.5L240.77,266.872z" fill="#000000" data-original="#000000" style=""/>
	</g>
</g>
<g xmlns="http://www.w3.org/2000/svg">
	<g>
		<path d="M388.91,250.31c-7.466-6.792-18.988-6.371-25.934,0.922l-164.682,172.73l26.888,25.637l152.157-159.605l102.97,93.658    l24.993-27.476L388.91,250.31z" fill="#000000" data-original="#000000" style=""/>
	</g>
</g>
<g xmlns="http://www.w3.org/2000/svg">
</g>
<g xmlns="http://www.w3.org/2000/svg">
</g>
<g xmlns="http://www.w3.org/2000/svg">
</g>
<g xmlns="http://www.w3.org/2000/svg">
</g>
<g xmlns="http://www.w3.org/2000/svg">
</g>
<g xmlns="http://www.w3.org/2000/svg">
</g>
<g xmlns="http://www.w3.org/2000/svg">
</g>
<g xmlns="http://www.w3.org/2000/svg">
</g>
<g xmlns="http://www.w3.org/2000/svg">
</g>
<g xmlns="http://www.w3.org/2000/svg">
</g>
<g xmlns="http://www.w3.org/2000/svg">
</g>
<g xmlns="http://www.w3.org/2000/svg">
</g>
<g xmlns="http://www.w3.org/2000/svg">
</g>
<g xmlns="http://www.w3.org/2000/svg">
</g>
<g xmlns="http://www.w3.org/2000/svg">
</g>
</g></svg>
